<?xml version="1.0" encoding="UTF-8"?>
<svg id="Camada_2" data-name="Camada 2" xmlns="http://www.w3.org/2000/svg" viewBox="0 0 84.65 116.51">
  <defs>
    <style>
      .cls-1 {
        fill: #000;
        stroke-width: 0px;
      }
    </style>
  </defs>
  <g id="_Ñëîé_1" data-name="Ñëîé 1">
    <g>
      <path class="cls-1" d="M4.04,104.04V9.54c0-3.03,2.91-5.5,6.49-5.5h46.38c3.58,0,6.49,2.47,6.49,5.5v53.52h4.04V9.54c0-5.26-4.72-9.54-10.53-9.54H10.53C4.73,0,0,4.28,0,9.54v94.5c0,5.26,4.72,9.54,10.53,9.54h25.57v-4.04H10.53c-3.58,0-6.49-2.47-6.49-5.5Z"/>
      <rect class="cls-1" x="10.97" y="97.63" width="19.34" height="4.04"/>
      <rect class="cls-1" x="27.46" y="10.54" width="14.61" height="4.04"/>
      <path class="cls-1" d="M78.13,71.43c-1.32,0-2.54.41-3.57,1.1-1.17-1.79-3.16-2.98-5.42-2.98-1.74,0-3.33.71-4.5,1.85-1.17-1.15-2.75-1.85-4.5-1.85-.88,0-1.71.18-2.48.5v-15.74c0-3.68-2.93-6.67-6.52-6.67s-6.52,2.99-6.52,6.67v14.83h.02l-.02,11.26c-2.27-3.65-5.61-7.7-9.56-8.41-2.51-.46-4.4,0-5.61,1.38-1.88,2.12-.95,5.32-.81,5.77l7.87,21.52c.6,1.64,1.49,3.12,2.65,4.42l2.65,2.97c1.58,1.77,2.45,4.06,2.45,6.44,0,.59.26,1.15.7,1.53.37.32.84.49,1.32.49.06,0,.12,0,.18,0,1.28-.06,20.03-.03,32.4,0h0c.54,0,1.05-.21,1.43-.59.38-.38.59-.89.59-1.43,0-1.76.46-3.92,1.08-5.13l1.13-2.18c1.01-1.94,1.54-4.12,1.54-6.31v-22.76c0-3.68-2.93-6.67-6.52-6.67ZM80.6,100.87c0,1.54-.37,3.08-1.08,4.45l-1.13,2.18c-.78,1.5-1.21,3.35-1.41,4.97-18.38-.05-25.79-.04-28.82-.02-.39-2.62-1.54-5.08-3.33-7.09l-2.65-2.97c-.82-.92-1.45-1.97-1.87-3.12l-7.84-21.46c-.17-.61-.2-1.52.02-1.76.09-.1.59-.3,1.85-.07,2.49.45,5.76,4.11,8.53,9.56.49.97,1.43,1.59,2.51,1.67,1.09.08,2.1-.41,2.73-1.3.36-.52.55-1.13.55-1.75l.02-14.99h-2s1.98,0,1.98,0v-14.83c0-1.45,1.11-2.63,2.48-2.63s2.48,1.18,2.48,2.63v26.05c0,1.12.91,2.02,2.02,2.02s2.02-.91,2.02-2.02v-4.13c0-1.45,1.11-2.63,2.48-2.63s2.48,1.18,2.48,2.63v4.13c0,1.12.91,2.02,2.02,2.02s2.02-.91,2.02-2.02v-4.13c0-1.45,1.11-2.63,2.48-2.63s2.48,1.18,2.48,2.63v4.13c0,1.12.91,2.02,2.02,2.02s2.02-.91,2.02-2.02v-2.25c0-1.45,1.11-2.63,2.48-2.63s2.48,1.18,2.48,2.63v22.76Z"/>
    </g>
  </g>
</svg>