<?xml version="1.0" encoding="UTF-8"?>
<svg id="Camada_2" data-name="Camada 2" xmlns="http://www.w3.org/2000/svg" viewBox="0 0 94.45 113.58">
  <defs>
    <style>
      .cls-1 {
        fill: #000;
        stroke-width: 0px;
      }
    </style>
  </defs>
  <g id="_Ñëîé_1" data-name="Ñëîé 1">
    <g>
      <path class="cls-1" d="M17.55,9.54c0-3.03,2.91-5.5,6.49-5.5h46.37c3.58,0,6.49,2.47,6.49,5.5v10.72h4.04v-10.72c0-5.26-4.72-9.54-10.53-9.54H24.04c-5.81,0-10.53,4.28-10.53,9.54v48.4h4.04V9.54Z"/>
      <path class="cls-1" d="M76.9,97.63H24.48v4.04h52.42v2.37c0,3.03-2.91,5.5-6.49,5.5H24.04c-3.58,0-6.49-2.47-6.49-5.5v-10.73h-4.04v10.73c0,5.26,4.72,9.54,10.53,9.54h46.37c5.81,0,10.53-4.28,10.53-9.54v-11.46h-4.04v5.04Z"/>
      <rect class="cls-1" x="40.96" y="10.54" width="14.61" height="4.04"/>
      <path class="cls-1" d="M18.62,86.87v-21.91c0-1.12-.91-2.02-2.02-2.02H2.02c-1.12,0-2.02.91-2.02,2.02v21.91c0,1.12.91,2.02,2.02,2.02h14.58c1.12,0,2.02-.91,2.02-2.02ZM14.58,84.85H4.04v-17.86h10.54v17.86Z"/>
      <path class="cls-1" d="M27.3,54.85c-1.12,0-2.02.91-2.02,2.02v30c0,1.12.91,2.02,2.02,2.02h14.58c1.12,0,2.02-.91,2.02-2.02v-30c0-1.12-.91-2.02-2.02-2.02h-14.58ZM39.86,84.85h-10.54v-25.96h10.54v25.96Z"/>
      <path class="cls-1" d="M52.57,88.89h14.58c1.12,0,2.02-.91,2.02-2.02v-46.55c0-1.12-.91-2.02-2.02-2.02h-14.58c-1.12,0-2.02.91-2.02,2.02v46.55c0,1.12.91,2.02,2.02,2.02ZM54.6,42.34h10.54v42.51h-10.54v-42.51Z"/>
      <path class="cls-1" d="M92.43,24.69h-14.58c-1.12,0-2.02.91-2.02,2.02v60.16c0,1.12.91,2.02,2.02,2.02h14.58c1.12,0,2.02-.91,2.02-2.02V26.71c0-1.12-.91-2.02-2.02-2.02ZM90.41,84.85h-10.54V28.73h10.54v56.11Z"/>
    </g>
  </g>
</svg>