<?xml version="1.0" encoding="UTF-8"?>
<svg id="Camada_2" data-name="Camada 2" xmlns="http://www.w3.org/2000/svg" viewBox="0 0 84.92 113.58">
  <defs>
    <style>
      .cls-1 {
        fill: #000;
        stroke-width: 0px;
      }
    </style>
  </defs>
  <g id="_Ñëîé_1" data-name="Ñëîé 1">
    <g>
      <path class="cls-1" d="M63.39,97.63H10.97v4.04h52.42v2.37c0,3.03-2.91,5.5-6.49,5.5H10.53c-3.58,0-6.49-2.47-6.49-5.5V9.54c0-3.03,2.91-5.5,6.49-5.5h46.38c3.58,0,6.49,2.47,6.49,5.5v10.24h4.04v-10.24c0-5.26-4.72-9.54-10.53-9.54H10.53C4.72,0,0,4.28,0,9.54v94.5c0,5.26,4.72,9.54,10.53,9.54h46.38c5.81,0,10.53-4.28,10.53-9.54v-30.55h-4.04v24.14Z"/>
      <rect class="cls-1" x="27.46" y="10.54" width="14.61" height="4.04"/>
      <path class="cls-1" d="M82.72,33.34c-9.3,0-15.77-7.84-15.88-7.98-.42-.52-1.05-.82-1.72-.82s-1.3.3-1.72.83c-.06.08-6.49,7.97-15.88,7.97-1.22,0-2.2.98-2.2,2.2,0,.95.21,23.47,18.82,32.77.31.16.65.23.98.23s.67-.08.98-.23c18.6-9.3,18.82-31.81,18.82-32.77,0-1.22-.98-2.2-2.2-2.2ZM65.12,63.85c-12.24-6.78-14.75-20.93-15.27-26.24,7.26-.79,12.66-5.11,15.27-7.65,2.6,2.54,8.01,6.86,15.27,7.65-.51,5.31-3.03,19.47-15.27,26.24Z"/>
    </g>
  </g>
</svg>