<?xml version="1.0" encoding="UTF-8"?>
<svg id="Camada_2" data-name="Camada 2" xmlns="http://www.w3.org/2000/svg" version="1.1" viewBox="0 0 151.7 242.3">
  <defs>
    <style>
      .cls-1 {
        fill: none;
        stroke: #000;
        stroke-linecap: round;
        stroke-linejoin: round;
        stroke-width: 7px;
      }
    </style>
  </defs>
  <g id="_Ñëîé_2" data-name=" Ñëîé 2">
    <g>
      <polygon class="cls-1" points="62.7 131.8 89.2 131.8 81.5 153.7 101 153.7 70.8 200.5 70.8 171 57.3 171 62.7 131.8"/>
      <path class="cls-1" d="M101,206.3c-7.4,4.3-16,6.8-25.2,6.8-27.5,0-49.8-22.3-49.8-49.8s22.3-49.8,49.8-49.8,49.8,22.3,49.8,49.8-9.9,34.3-24.6,43"/>
      <rect class="cls-1" x="7.7" y="95.2" width="136.3" height="136.3" rx="16.7" ry="16.7"/>
      <g>
        <line class="cls-1" x1="75.8" y1="94.7" x2="75.8" y2="72.1"/>
        <circle class="cls-1" cx="75.9" cy="63.6" r="8.5"/>
      </g>
      <g>
        <path class="cls-1" d="M109.3,24.6h0c-8.6-8.6-20.4-13.8-33.4-13.8s-24.9,5.3-33.4,13.8h0"/>
        <path class="cls-1" d="M97.6,34.9c-5.6-5.6-13.2-9-21.7-9s-16.2,3.4-21.7,9h0"/>
        <path class="cls-1" d="M65,45.4c2.8-2.8,6.6-4.5,10.9-4.5s8.1,1.7,10.9,4.5"/>
      </g>
    </g>
  </g>
</svg>