<?xml version="1.0" encoding="UTF-8"?>
<svg id="Camada_2" data-name="Camada 2" xmlns="http://www.w3.org/2000/svg" version="1.1" viewBox="0 0 257.5 258.1">
  <defs>
    <style>
      .cls-1 {
        fill: none;
        stroke: #000;
        stroke-linecap: round;
        stroke-linejoin: round;
        stroke-width: 7px;
      }
    </style>
  </defs>
  <g id="_Ñëîé_2" data-name=" Ñëîé 2">
    <g>
      <polyline class="cls-1" points="160.2 89.9 193 89.9 193 60.8 62.7 60.8 62.7 89.9 95.5 89.9"/>
      <path class="cls-1" d="M50.5,102.5h0c-6.7,0-12.2-5.5-12.2-12.2v-34.9h24.4v34.9c0,6.7-5.5,12.2-12.2,12.2Z"/>
      <path class="cls-1" d="M193,55.3h24.4v34.9c0,6.7-5.5,12.2-12.2,12.2h0c-6.7,0-12.2-5.5-12.2-12.2v-34.9h0Z"/>
      <path class="cls-1" d="M96.7,60.8v-6.7c0-6.9,5.6-12.6,12.6-12.6h36.5c6.9,0,12.6,5.6,12.6,12.6v6.7"/>
      <path class="cls-1" d="M167.1,61.7l-9.7,40.1c-1.7,7.3-8.3,12.5-15.8,12.5h-27.4c-7.6,0-14.1-5.2-15.8-12.5l-9.7-40.1"/>
      <line class="cls-1" x1="50.6" y1="47" x2="50.5" y2="5.2"/>
      <line class="cls-1" x1="26.9" y1="13.9" x2="74.1" y2="13.9"/>
      <line class="cls-1" x1="205.6" y1="47" x2="205.2" y2="5.2"/>
      <line class="cls-1" x1="181.6" y1="13.9" x2="228.8" y2="13.9"/>
      <path class="cls-1" d="M137.7,120c0,5.3-4.3,9.6-9.6,9.6h-.4c-5.3,0-9.6-4.3-9.6-9.6"/>
      <line class="cls-1" x1="127.9" y1="142.4" x2="127.9" y2="169.9"/>
      <line class="cls-1" x1="109.2" y1="145.2" x2="104.4" y2="153.6"/>
      <line class="cls-1" x1="98.9" y1="164.9" x2="94" y2="173.2"/>
      <line class="cls-1" x1="102.3" y1="127.7" x2="78.5" y2="141.4"/>
      <line class="cls-1" x1="64.8" y1="149.3" x2="41.1" y2="163"/>
      <line class="cls-1" x1="153.4" y1="127.7" x2="177.2" y2="141.4"/>
      <line class="cls-1" x1="190.9" y1="149.3" x2="214.7" y2="163"/>
      <line class="cls-1" x1="151.4" y1="153.6" x2="146.5" y2="145.2"/>
      <line class="cls-1" x1="162.9" y1="174.2" x2="157.5" y2="164.9"/>
      <line class="cls-1" x1="17.7" y1="252.9" x2="252.2" y2="252.9"/>
      <g>
        <path class="cls-1" d="M203.9,196.1c6.7,6.3,7.7,16.3,2.1,22.3-5.6,6-15.6,5.7-22.4-.6-6.7-6.3-8.7-28.5-8.7-28.5,0,0,22.2.5,29,6.8h0Z"/>
        <path class="cls-1" d="M241.8,225.7c-6.1,5.5-15,5.7-19.9.3-4.9-5.4-4-14.2,2.1-19.8,6.1-5.5,25.8-5.7,25.8-5.7,0,0-2,19.7-8,25.2h0Z"/>
        <path class="cls-1" d="M205.4,219h0c3.5,5.3,6.2,11,8,17,1.6,5.5,2.5,11.1,2.6,16.9"/>
        <path class="cls-1" d="M222.6,226.6c-2.7,3.5-5.8,6.6-9.2,9.3"/>
      </g>
      <g>
        <path class="cls-1" d="M137,196.1c-6.7,6.3-7.7,16.3-2.1,22.3,5.6,6,15.6,5.7,22.4-.6,6.7-6.3,8.7-28.5,8.7-28.5,0,0-22.2.5-29,6.8h0Z"/>
        <path class="cls-1" d="M99,225.7c6.1,5.5,15,5.7,19.9.3s4-14.2-2.1-19.8c-6.1-5.5-25.8-5.7-25.8-5.7,0,0,2,19.7,8,25.2h0Z"/>
        <path class="cls-1" d="M124.9,252.9c0-5.8,1-11.5,2.6-16.9,1.8-6,4.5-11.7,8-17h0"/>
        <path class="cls-1" d="M118.2,226.6c2.7,3.5,5.8,6.6,9.2,9.3"/>
      </g>
      <g>
        <path class="cls-1" d="M34.2,196.1c6.7,6.3,7.7,16.3,2.1,22.3-5.6,6-15.6,5.7-22.4-.6-6.7-6.3-8.7-28.5-8.7-28.5,0,0,22.2.5,29,6.8h0Z"/>
        <path class="cls-1" d="M72.2,225.7c-6.1,5.5-15,5.7-19.9.3s-4-14.2,2.1-19.8c6.1-5.5,25.8-5.7,25.8-5.7,0,0-2,19.7-8,25.2h0Z"/>
        <path class="cls-1" d="M35.7,219h0c3.5,5.3,6.2,11,8,17,1.6,5.5,2.5,11.1,2.6,16.9"/>
        <path class="cls-1" d="M53,226.6c-2.7,3.5-5.8,6.6-9.2,9.3"/>
      </g>
    </g>
  </g>
</svg>