<?xml version="1.0" encoding="UTF-8"?>
<svg id="Camada_2" data-name="Camada 2" xmlns="http://www.w3.org/2000/svg" version="1.1" viewBox="0 0 241.6 197.8">
  <defs>
    <style>
      .cls-1 {
        fill: none;
        stroke: #000;
        stroke-linecap: round;
        stroke-linejoin: round;
        stroke-width: 7px;
      }
    </style>
  </defs>
  <g id="_Ñëîé_2" data-name=" Ñëîé 2">
    <g>
      <path class="cls-1" d="M96.3,55l137.6,44.6-1.4,4.3c-5.2,16-22.3,24.7-38.3,19.6l-108.7-35.2c-2.1-.7-3.3-3-2.6-5.1l8.3-25.5c.7-2.1,3-3.3,5.1-2.6h0Z"/>
      <path class="cls-1" d="M90.8,89.9l87.9,28.5-7,21.8c-1.1,3.3-4.7,5.2-8,4.1l-75.9-24.6c-3.3-1.1-5.2-4.7-4.1-8l7-21.8h0Z"/>
      <path class="cls-1" d="M192.6,122.9l-4.7,14.4c-.9,2.9-4,4.4-6.9,3.5l-3-1"/>
      <path class="cls-1" d="M101.8,124.2l35.1,11.4-4.6,14.2c-.6,1.8-2.6,2.9-4.4,2.3l-28.4-9.2c-1.8-.6-2.9-2.6-2.3-4.4l4.6-14.2h0Z"/>
      <path class="cls-1" d="M7.8,117.2h6.1c10.1,0,18.3,8.2,18.3,18.3v36.7c0,10.1-8.2,18.3-18.3,18.3h-6.1"/>
      <line class="cls-1" x1="93.8" y1="164.8" x2="32.5" y2="144.2"/>
      <line class="cls-1" x1="79.1" y1="177" x2="32.5" y2="161.3"/>
      <line class="cls-1" x1="120" y1="149.5" x2="117.3" y2="158.1"/>
      <line class="cls-1" x1="104.6" y1="144.5" x2="99" y2="162.1"/>
      <line class="cls-1" x1="110.1" y1="126.9" x2="110.1" y2="126.9"/>
      <circle class="cls-1" cx="103.1" cy="176.2" r="14.7"/>
      <g>
        <path class="cls-1" d="M109.5,8.9c-11.8-3.2-24.2-2.7-35.6,2.5-11.4,5.1-20.1,14.1-25.4,25"/>
        <path class="cls-1" d="M107.1,23.9c-8.8-2.4-18.1-2-26.7,1.9s-15,10.6-19.1,18.8"/>
        <path class="cls-1" d="M104.7,38.9c-5.9-1.6-12.1-1.3-17.8,1.2-5.7,2.6-10,7-12.7,12.5"/>
      </g>
    </g>
  </g>
</svg>