<?xml version="1.0" encoding="UTF-8"?>
<svg id="Camada_2" data-name="Camada 2" xmlns="http://www.w3.org/2000/svg" version="1.1" viewBox="0 0 246.2 212.8">
  <defs>
    <style>
      .cls-1 {
        fill: none;
        stroke: #000;
        stroke-linecap: round;
        stroke-linejoin: round;
        stroke-width: 7px;
      }
    </style>
  </defs>
  <g id="_Ñëîé_2" data-name=" Ñëîé 2">
    <g>
      <g>
        <path class="cls-1" d="M36.1,207.5l3.8-36.8c1.8-17.1,16.2-30,33.3-30h0c17.2,0,31.5,13,33.3,30l3.8,36.8"/>
        <line class="cls-1" x1="61.1" y1="131.6" x2="61.1" y2="88.6"/>
        <line class="cls-1" x1="85.5" y1="131.6" x2="85.5" y2="88.6"/>
        <line class="cls-1" x1="162.3" y1="65.5" x2="101.6" y2="79.8"/>
        <line class="cls-1" x1="171.8" y1="38.1" x2="77.5" y2="60.4"/>
        <path class="cls-1" d="M198.4,59.2v26.9c0,6.7-5.5,12.2-12.2,12.2s-12.2-5.5-12.2-12.2v-11.5"/>
        <circle class="cls-1" cx="73.3" cy="76.8" r="17"/>
        <path class="cls-1" d="M190.2,63.7c-9.1,2.2-18.3-3.3-20.5-12.4-2.2-9.1,3.3-18.3,12.4-20.5s18.3,3.3,20.5,12.4c2.2,9.1-3.3,18.3-12.4,20.5Z"/>
        <polyline class="cls-1" points="154 145.6 149.1 136.4 168.5 131"/>
        <path class="cls-1" d="M168.3,118l-30.1,11c-3.2,1.1-4.7,4.7-3.4,7.7l22.1,29.9"/>
        <polyline class="cls-1" points="217.7 147.3 223.6 136.4 204.3 131"/>
        <path class="cls-1" d="M204.5,118l30.1,11c3.2,1.1,4.7,4.7,3.4,7.7l-22.5,31.3"/>
        <path class="cls-1" d="M186.4,138.2h0c-5.1,0-9.3-4.2-9.3-9.3v-14.1h18.6v14.1c0,5.1-4.2,9.3-9.3,9.3h0Z"/>
        <path class="cls-1" d="M73.3,192.6h0c-8.3,0-15-6.7-15-15h0c0-8.3,6.7-15,15-15h0c8.3,0,15,6.7,15,15h0c0,8.3-6.7,15-15,15Z"/>
        <g>
          <line class="cls-1" x1="193.9" y1="96.1" x2="193.9" y2="106.3"/>
          <line class="cls-1" x1="178.9" y1="96.1" x2="178.9" y2="106.3"/>
        </g>
      </g>
      <g>
        <path class="cls-1" d="M70.9,5.5h0c-14.8-2-30.3,1.6-43.1,11.3C15,26.5,7.3,40.5,5.3,55.3h0"/>
        <path class="cls-1" d="M67.1,24.3c-9.6-1.3-19.7,1-28,7.4-8.3,6.3-13.3,15.4-14.6,25h0"/>
        <path class="cls-1" d="M42.9,58.9c.7-4.8,3.1-9.4,7.3-12.5s9.2-4.3,14-3.7"/>
      </g>
      <line class="cls-1" x1="27.2" y1="207.9" x2="241" y2="207.9"/>
    </g>
  </g>
</svg>