<?xml version="1.0" encoding="UTF-8"?>
<svg id="Camada_1" data-name="Camada 1" xmlns="http://www.w3.org/2000/svg" version="1.1" viewBox="0 0 32 32">
  <defs>
    <style>
      .cls-1 {
        fill: #000;
        stroke-width: 0px;
      }
    </style>
  </defs>
  <g id="Grupo_de_máscara_19" data-name="Grupo de máscara 19">
    <g id="_TEMP_SVG" data-name="  TEMP  SVG">
      <g id="Caminho_109" data-name="Caminho 109">
        <path class="cls-1" d="M16,32C7.2,32,0,24.8,0,16c0-4.3,1.7-8.3,4.7-11.3C7.7,1.7,11.7,0,16,0h0C20.3,0,24.3,1.7,27.3,4.7c3,3,4.7,7,4.7,11.3v2.1c0,1.5-.6,2.8-1.6,3.9-1,1-2.4,1.6-3.9,1.6h0c-2,0-3.8-1.1-4.7-2.7-1.4,1.7-3.5,2.7-5.8,2.7-4.2,0-7.6-3.4-7.6-7.6s3.4-7.6,7.6-7.6,7.6,3.4,7.6,7.6v2.1c0,.8.3,1.5.9,2.1s1.3.9,2.1.9h0c.8,0,1.5-.3,2.1-.9.6-.6.9-1.3.9-2.1v-2.1c0-3.6-1.4-7-4-9.6-2.6-2.6-6-4-9.6-4h0c-3.6,0-7,1.4-9.6,4-2.6,2.6-4,6-4,9.6,0,7.5,6.1,13.5,13.5,13.5h0c2.8,0,5.5-.8,7.7-2.4.6-.4,1.3-.2,1.7.3.4.6.2,1.3-.3,1.7-2.7,1.9-5.9,2.9-9.1,2.9h0ZM16,10.9c-2.8,0-5.1,2.3-5.1,5.1s2.3,5.1,5.1,5.1,5.1-2.3,5.1-5.1-2.3-5.1-5.1-5.1Z"/>
      </g>
    </g>
  </g>
</svg>