<?xml version="1.0" encoding="utf-8"?>
<!-- Generator: Adobe Illustrator 28.2.0, SVG Export Plug-In . SVG Version: 6.00 Build 0)  -->
<svg version="1.1" id="Camada_1" xmlns="http://www.w3.org/2000/svg" xmlns:xlink="http://www.w3.org/1999/xlink" x="0px" y="0px"
	 viewBox="0 0 64 64" style="enable-background:new 0 0 64 64;" xml:space="preserve">
<g>
	<path d="M55.7,11.3c0,0,0-0.1,0-0.1c1.3-3.3,2.4-6.6,3.1-10.1c0.1-0.5-0.2-1-0.7-1.1c-0.1,0-0.2,0-0.3,0C57,0.2,39.6,3.7,26.4,16.9
		c-0.8,0.8-1.5,1.6-2.3,2.4c-4.6-0.9-9.6,0.9-13.3,4.6c-1.9,1.9-3.4,4.3-4.2,6.8c-0.1,0.3,0,0.7,0.3,1C7.1,31.9,7.3,32,7.5,32
		c0.1,0,0.3,0,0.4-0.1c2.7-1.1,5.7-1.4,8.6-0.7c0.3,0,0.5,0,0.7-0.2c0.1-0.1,0.2-0.2,0.2-0.3c1.8-3.2,4-6.2,6.7-8.8l0.4-0.4
		c0.1,0,0.3-0.1,0.3-0.2c0.9-1,1.8-2,2.8-3c5.8-5.6,12.5-10,20-13c0.8,1.2,1.7,2.4,2.7,3.4c1,1,2.1,1.9,3.4,2.7
		c-3,7.4-7.4,14.2-13,20c-1,1-2,1.9-3,2.7L37.6,34c-0.1,0-0.2,0.1-0.2,0.2c-0.3,0.3-0.6,0.6-0.9,0.9c-2.3,2.3-4.9,4.4-7.7,6
		c0.1-0.1,0.1-0.2,0.2-0.3c0.1-0.5-0.1-1-0.6-1.1c0,0,0,0,0,0c-1.8-0.5-3.4-1.4-4.8-2.5l9.7-9.7c0.4-0.4,0.4-0.9,0-1.3
		c-0.4-0.4-0.9-0.4-1.3,0c0,0,0,0,0,0l-9.7,9.7c-1.3-1.4-2.2-3.2-2.6-5c-0.1-0.5-0.5-0.9-1-0.8c-0.5,0.1-0.9,0.5-0.8,1
		c0,0,0,0.1,0,0.1c0.5,2.2,1.5,4.3,3.1,6L20,38c-0.4,0.3-0.4,0.9,0,1.3c0.3,0.4,0.9,0.4,1.3,0c0,0,0,0,0,0l1-1
		c1.7,1.3,3.6,2.3,5.7,3c0.1,0,0.2,0,0.2,0c0,0,0.1,0,0.1,0c-0.2,0.1-0.3,0.2-0.5,0.3c-0.1,0.1-0.2,0.1-0.3,0.2
		c-0.2,0.2-0.2,0.5-0.2,0.7c0.7,2.9,0.4,5.9-0.7,8.6c-0.2,0.5,0,1,0.5,1.2c0.1,0,0.2,0.1,0.3,0.1c0.1,0,0.2,0,0.3,0
		c2.6-0.8,4.9-2.2,6.8-4.2C38,45,39.7,40,39,35.1c1-0.8,2-1.7,2.9-2.6C47.9,26.4,52.6,19.2,55.7,11.3z M16.2,29.2
		c-2.4-0.4-4.8-0.3-7.1,0.3c0.8-1.6,1.8-3.1,3-4.3c2.5-2.7,6-4.2,9.7-4.3c0.2,0,0.5,0,0.7,0C20,23.4,17.9,26.2,16.2,29.2z M56.8,2.1
		c-0.3,1-0.7,2.6-1.4,4.6h0c-0.7-0.4-1.3-0.9-1.8-1.5c-0.5-0.5-1-1.1-1.4-1.7C54.1,2.8,55.7,2.4,56.8,2.1z M51.6,7.3
		c-0.8-0.8-1.6-1.8-2.2-2.8c0.3-0.1,0.7-0.3,1-0.4c0.5,0.9,1.1,1.7,1.9,2.4c0.7,0.7,1.6,1.4,2.5,1.9c-0.1,0.3-0.2,0.7-0.4,1.1
		C53.3,8.9,52.4,8.1,51.6,7.3z M33.2,47.1c-1.2,1.3-2.7,2.3-4.3,3c0.6-2.3,0.7-4.8,0.3-7.1c3-1.7,5.8-3.9,8.3-6.3
		C37.5,40.6,36,44.4,33.2,47.1z"/>
	<path d="M48.6,15.9c0-3-2.4-5.3-5.3-5.3s-5.3,2.4-5.3,5.3s2.4,5.3,5.3,5.3C46.2,21.2,48.6,18.8,48.6,15.9z M39.8,15.9
		c0-2,1.6-3.5,3.5-3.5c2,0,3.5,1.6,3.5,3.5c0,2-1.6,3.5-3.5,3.5C41.4,19.4,39.8,17.8,39.8,15.9z"/>
	<path d="M26.3,44.1C26.3,44.1,26.3,44,26.3,44.1c-0.4-0.4-1-0.4-1.3-0.1c0,0,0,0,0,0c-3.4,3.4-7.7,5.4-10.9,5.1
		c2.8-3.2,4.8-7,3.1-8.7c-1.5-1.5-4.5-0.1-7.2,1.9c0.8-3.2,2.5-6.2,4.9-8.5c0.4-0.4,0.4-0.9,0-1.3c-0.4-0.4-0.9-0.4-1.3,0
		c-3.6,3.6-5.8,8.1-5.7,11.8c0,0.4,0.2,0.7,0.5,0.8c0.3,0.1,0.7,0.1,1-0.2c3.7-3.3,6.1-3.8,6.5-3.4c0.4,0.4-0.5,3.5-4.2,7.3
		c-0.3,0.4-0.3,0.9,0,1.3c0.1,0.1,0.2,0.2,0.3,0.2c0.8,0.3,1.7,0.4,2.6,0.4c3.6,0,8-2.1,11.6-5.7C26.6,45,26.6,44.4,26.3,44.1z"/>
	<path d="M18.5,15.6c0.2,0.2,0.4,0.3,0.6,0.2c0.2,0,0.5-0.1,0.6-0.3L26,9.4c0.4-0.4,0.3-0.9,0-1.3c-0.4-0.3-0.9-0.3-1.3,0l-6.2,6.2
		C18.2,14.6,18.1,15.2,18.5,15.6C18.5,15.6,18.5,15.6,18.5,15.6z"/>
	<path d="M60.2,17C60.2,17,60.2,17,60.2,17c-0.4-0.3-1-0.3-1.3,0.1c0,0,0,0,0,0l-3.7,4.4c-0.3,0.4-0.3,0.9,0.1,1.3c0,0,0,0,0,0
		c0.2,0.1,0.4,0.2,0.6,0.2c0.3,0,0.5-0.1,0.7-0.3l3.7-4.4C60.6,17.9,60.6,17.3,60.2,17z"/>
	<path d="M35.2,52.3L35.2,52.3l-5.6,5.9c-0.3,0.4-0.3,0.9,0,1.3c0,0,0,0,0,0c0.2,0.2,0.4,0.2,0.6,0.2c0.2,0,0.5-0.1,0.7-0.3l5.6-5.9
		c0.3-0.4,0.3-1,0-1.3C36.1,51.9,35.5,51.9,35.2,52.3z"/>
	<path d="M17,54.1C17,54.1,16.9,54.1,17,54.1L17,54.1l-7.3,8.4c-0.3,0.4-0.3,1,0.1,1.3c0.2,0.1,0.4,0.2,0.6,0.2
		c0.3,0,0.5-0.1,0.7-0.3l7.2-8.3c0.3-0.4,0.3-0.9,0-1.3C17.9,53.7,17.3,53.8,17,54.1z"/>
	<path d="M7.7,46.7C7.7,46.7,7.7,46.7,7.7,46.7L3.7,51c-0.3,0.4-0.3,1,0.1,1.3c0.2,0.2,0.4,0.2,0.6,0.2c0.3,0,0.5-0.1,0.7-0.3L9,48
		c0.3-0.4,0.3-0.9,0-1.3C8.6,46.3,8,46.4,7.7,46.7z"/>
</g>
</svg>
