<?xml version="1.0" encoding="utf-8"?>
<!-- Generator: Adobe Illustrator 28.2.0, SVG Export Plug-In . SVG Version: 6.00 Build 0)  -->
<svg version="1.1" id="Camada_1" xmlns="http://www.w3.org/2000/svg" xmlns:xlink="http://www.w3.org/1999/xlink" x="0px" y="0px"
	 viewBox="0 0 64 64" style="enable-background:new 0 0 64 64;" xml:space="preserve">
<g>
	<path d="M38.8,39.1c0.3-0.2,0.4-0.6,0.4-0.9L38,31.9l4.7-4.4c0.2-0.2,0.3-0.6,0.2-0.9c-0.1-0.3-0.4-0.6-0.7-0.6l-6.4-0.8l-2.8-5.8
		c-0.1-0.3-0.5-0.5-0.8-0.5c-0.3,0-0.7,0.2-0.8,0.5l-2.7,5.8L22.2,26c-0.3,0.1-0.6,0.3-0.7,0.6c-0.1,0.3,0,0.7,0.2,0.9l4.7,4.4
		l-1.2,6.3c-0.1,0.3,0.1,0.7,0.4,0.9c0.1,0.1,0.3,0.2,0.5,0.2c0.1,0,0.3,0,0.4-0.1l5.7-3.1l5.7,3.1C38.2,39.4,38.5,39.3,38.8,39.1z
		 M32.6,34.3c-0.3-0.1-0.6-0.1-0.8,0l-4.4,2.4l0.9-5c0-0.3-0.1-0.6-0.3-0.8l-3.7-3.5l5-0.7c0.3,0,0.6-0.2,0.7-0.5l2.2-4.6l2.2,4.6
		c0.1,0.3,0.4,0.5,0.7,0.5l5,0.6L36.4,31c-0.2,0.2-0.3,0.5-0.3,0.8l0.9,5L32.6,34.3z"/>
	<path d="M46.5,41.7l-0.1-0.1l0.1-1v-0.1c0-0.2,0.2-0.3,0.3-0.4l3-1.4c1.1-0.5,1.7-1.8,1.2-3l-1.2-3.1c-0.1-0.2,0-0.4,0.1-0.5l2-2.6
		c0.8-1,0.6-2.4-0.3-3.2l-2.5-2.2c-0.2-0.1-0.2-0.3-0.2-0.5l0.6-3.2c0.2-1.2-0.6-2.4-1.8-2.7L44.6,17c-0.2,0-0.3-0.2-0.4-0.4l-1-3.1
		c-0.4-1.2-1.6-1.9-2.8-1.5l-3.2,0.8c-0.2,0.1-0.4,0-0.5-0.1l-2.3-2.3c-0.9-0.9-2.3-0.9-3.2-0.1l-2.4,2.2c-0.1,0.1-0.3,0.2-0.5,0.1
		l-3.2-1c-1.2-0.4-2.4,0.3-2.9,1.4L21,16.2c-0.1,0.2-0.2,0.3-0.4,0.4l-3.3,0.6c-1.2,0.2-2,1.4-1.9,2.6l0.4,3.3c0,0.2,0,0.4-0.2,0.5
		l-2.6,2c-1,0.8-1.2,2.2-0.4,3.2l1.9,2.7c0.1,0.2,0.1,0.4,0,0.5l-1.3,3c-0.5,1.1,0,2.4,1.1,3l2.9,1.5c0.2,0.1,0.3,0.3,0.3,0.4
		l0.1,0.9l-7,17.2c-0.1,0.3-0.1,0.6,0.1,0.9c0.2,0.3,0.5,0.4,0.8,0.3l7.1-1.2l3.8,5.7c0.2,0.2,0.4,0.4,0.7,0.4h0.1
		c0.3,0,0.6-0.2,0.7-0.6l6.2-15.1l1.4-0.8c0.2-0.1,0.4-0.1,0.5,0l1.4,0.9l6,14.8c0.1,0.3,0.4,0.5,0.7,0.6h0.1c0.3,0,0.6-0.2,0.7-0.4
		l3.8-5.7l7.1,1.2c0.3,0.1,0.6-0.1,0.8-0.3c0.2-0.3,0.2-0.6,0.1-0.9L46.5,41.7z M12.9,57.2l2.2-5.4l2.6,4.6L12.9,57.2z M23,61.3
		l-3.2-4.7l-3.9-6.8l1-2.4l7.2,11.3L23,61.3z M24.9,56.6l-7.1-11.3l-0.1-0.1l0.4-1.1c0.4,0.7,1.2,1.1,2,1.1c0,0,0,0,0,0h0.4L26,54
		L24.9,56.6z M26.8,52l-4.2-6.7l0.8,0c0.2,0,0.4,0.1,0.5,0.3l1.7,2.8c0.5,0.8,1.3,1.2,2.2,1.1L26.8,52z M33.2,46
		c-0.4-0.1-0.8-0.2-1.3-0.2l0,0c-0.4,0-0.8,0.1-1.1,0.3l-2.9,1.6c-0.3,0.1-0.6,0-0.7-0.2l-1.7-2.8c-0.4-0.7-1.2-1.1-2-1.1h0l-3.3,0
		c-0.3,0-0.5-0.2-0.5-0.5c0,0,0,0,0,0l-0.2-3.3c0-0.8-0.5-1.6-1.3-1.9l-2.9-1.5c-0.3-0.1-0.4-0.4-0.3-0.7c0,0,0,0,0,0l1.3-3
		c0.3-0.7,0.2-1.6-0.2-2.3l-1.9-2.7c-0.2-0.2-0.1-0.6,0.1-0.7l2.6-2c0.6-0.5,1-1.3,0.9-2.1l-0.4-3.3c0-0.3,0.2-0.6,0.4-0.6
		c0,0,0,0,0,0l3.2-0.6c0.8-0.2,1.5-0.7,1.8-1.5l1.1-3.1c0.1-0.3,0.4-0.4,0.7-0.3l3.2,1c0.8,0.2,1.6,0,2.2-0.5l2.4-2.2
		c0.2-0.2,0.5-0.2,0.8,0l2.3,2.3c0.6,0.6,1.4,0.8,2.2,0.6l3.2-0.8c0.3-0.1,0.6,0.1,0.6,0.4l1,3.1c0.2,0.8,0.9,1.4,1.7,1.6l3.2,0.7
		c0.3,0.1,0.5,0.3,0.4,0.6c0,0,0,0,0,0l-0.6,3.2c-0.1,0.8,0.2,1.6,0.8,2.2l2.5,2.2c0.2,0.2,0.2,0.5,0.1,0.8l-2,2.6
		c-0.5,0.6-0.6,1.5-0.3,2.3l1.2,3.1c0.1,0.3,0,0.6-0.3,0.7l-3,1.4c-0.7,0.3-1.3,1.1-1.3,1.9v0.1l-0.3,3.2c0,0.3-0.3,0.5-0.6,0.5
		l-3.3-0.2c-0.8,0-1.6,0.3-2,1l-1.8,2.7c-0.2,0.2-0.5,0.3-0.7,0.2L33.2,46z M44.8,56c-0.3-0.1-0.7,0.1-0.9,0.4l-3.2,4.8l-4.7-11.5
		c0.1,0,0.1,0,0.2,0c0.8,0,1.5-0.4,1.9-1l1.8-2.7c0.1-0.2,0.3-0.2,0.5-0.2l3.3,0.2c0.8,0,1.6-0.4,2.1-1.1l5,12.3L44.8,56z"/>
	<path d="M9.5,28.4c0-0.5-0.4-0.9-0.9-0.9H4.4c-0.5,0-0.9,0.4-0.9,0.9c0,0.5,0.4,0.8,0.9,0.9h4.2C9.1,29.3,9.5,28.9,9.5,28.4z"/>
	<path d="M59.7,27.5C59.6,27.5,59.6,27.5,59.7,27.5h-4c-0.5,0-0.9,0.4-0.9,0.9c0,0.5,0.4,0.8,0.9,0.9h4c0.5,0,0.9-0.4,0.9-0.9
		C60.5,27.9,60.1,27.5,59.7,27.5z"/>
	<path d="M18.7,7.3c0.2,0.3,0.5,0.5,0.8,0.4c0.2,0,0.3,0,0.4-0.1c0.4-0.3,0.6-0.8,0.3-1.2l-1.8-3.2c-0.3-0.4-0.8-0.6-1.2-0.3
		s-0.6,0.8-0.3,1.2L18.7,7.3z"/>
	<path d="M6.9,14.7C6.9,14.7,6.9,14.8,6.9,14.7l3.2,1.9c0.1,0.1,0.3,0.1,0.4,0.1c0.5,0,0.9-0.4,0.9-0.9c0-0.3-0.2-0.6-0.4-0.8
		l-3.2-1.8c-0.4-0.2-1-0.1-1.2,0.3C6.4,13.9,6.5,14.5,6.9,14.7z"/>
	<path d="M57.4,42C57.4,42,57.4,42,57.4,42l-3.2-1.9c-0.4-0.3-1-0.1-1.2,0.3c-0.3,0.4-0.1,1,0.3,1.2l3.2,1.8
		c0.1,0.1,0.3,0.1,0.4,0.1c0.3,0,0.6-0.2,0.8-0.4C57.9,42.8,57.8,42.3,57.4,42z"/>
	<path d="M54.1,17.4c0.1,0,0.3,0,0.4-0.1l3.2-1.8c0.4-0.2,0.6-0.8,0.4-1.2c-0.2-0.4-0.8-0.6-1.2-0.4c0,0,0,0,0,0l-3.2,1.8
		c-0.4,0.2-0.6,0.8-0.4,1.2C53.5,17.2,53.8,17.4,54.1,17.4z"/>
	<path d="M11,39.9C11,39.9,11,39.9,11,39.9c-0.3-0.5-0.8-0.6-1.2-0.4l-3.2,1.8c-0.4,0.2-0.6,0.8-0.4,1.2C6.3,42.8,6.6,43,6.9,43
		c0.1,0,0.3,0,0.4-0.1l3.2-1.8C11,40.9,11.2,40.4,11,39.9z"/>
	<path d="M44.2,7.6c0.1,0.1,0.3,0.1,0.4,0.1c0.3,0,0.6-0.2,0.8-0.4l1.8-3.2c0.3-0.4,0.2-1-0.2-1.3s-1-0.2-1.3,0.2
		c0,0-0.1,0.1-0.1,0.1l-1.8,3.2C43.7,6.8,43.8,7.3,44.2,7.6z"/>
	<path d="M32.1,5.7c0.5,0,0.9-0.4,0.9-0.9v-4c0-0.5-0.4-0.9-0.9-0.9s-0.9,0.4-0.9,0.9c0,0,0,0,0,0.1v4C31.3,5.3,31.7,5.7,32.1,5.7z"
		/>
</g>
</svg>
