<?xml version="1.0" encoding="utf-8"?>
<!-- Generator: Adobe Illustrator 28.2.0, SVG Export Plug-In . SVG Version: 6.00 Build 0)  -->
<svg version="1.1" id="Camada_1" xmlns="http://www.w3.org/2000/svg" xmlns:xlink="http://www.w3.org/1999/xlink" x="0px" y="0px"
	 viewBox="0 0 64 64" style="enable-background:new 0 0 64 64;" xml:space="preserve">
<g>
	<path d="M46.9,17.4c3.2,0,5.7-2.6,5.7-5.7c0-3.2-2.6-5.7-5.7-5.7c-3.2,0-5.7,2.6-5.7,5.7C41.2,14.8,43.8,17.4,46.9,17.4z M46.9,7.8
		c2.1,0,3.8,1.7,3.8,3.8c0,2.1-1.7,3.8-3.8,3.8c-2.1,0-3.8-1.7-3.8-3.8C43.1,9.5,44.8,7.8,46.9,7.8z"/>
	<path d="M14.1,24.9c-3.2,0-5.7,2.6-5.7,5.7s2.6,5.7,5.7,5.7c3.2,0,5.7-2.6,5.7-5.7C19.8,27.5,17.3,24.9,14.1,24.9z M14.1,34.5
		C14.1,34.5,14.1,34.5,14.1,34.5c-2.1,0-3.8-1.7-3.8-3.8c0-2.1,1.7-3.8,3.8-3.8c2.1,0,3.8,1.7,3.8,3.8
		C17.9,32.8,16.2,34.5,14.1,34.5z"/>
	<path d="M49.9,41.7c-3.2,0-5.7,2.6-5.7,5.7s2.6,5.7,5.7,5.7c3.2,0,5.7-2.6,5.7-5.7C55.6,44.3,53.1,41.7,49.9,41.7z M49.9,51.3
		C49.9,51.3,49.9,51.3,49.9,51.3c-2.1,0-3.8-1.7-3.8-3.8c0-2.1,1.7-3.8,3.8-3.8c2.1,0,3.8,1.7,3.8,3.8C53.7,49.6,52,51.3,49.9,51.3z
		"/>
	<path d="M50.7,35.8l-1-7.9c7.6-1.6,12.5-9,11-16.6c-1.6-7.6-9-12.5-16.6-11c-7.6,1.6-12.5,9-11,16.6c0.2,1.2,0.6,2.3,1.1,3.4
		l-8.3,5c0,0,0,0,0,0c-4.3-6.5-13-8.3-19.5-4c-6.5,4.3-8.3,13-4,19.5c4.3,6.5,13,8.3,19.5,4c2.2-1.5,4-3.5,5.1-6l10.2,4.9h0
		c-0.9,1.9-1.4,4-1.4,6.1c0,7.8,6.3,14.1,14.1,14.1C57.7,64,64,57.7,64,49.9C64,42.4,58.2,36.3,50.7,35.8z M46.9,26.3
		c-2.7,0-5.3-0.9-7.4-2.5c0-0.1,0-0.2,0-0.2c0-1.9,1.6-4.2,3.5-4.2h7.7c2,0,3.5,2.3,3.5,4.2c0,0.1,0,0.2,0,0.2
		C52.2,25.4,49.6,26.3,46.9,26.3z M38.9,5c2.2-2,5.1-3.1,8-3.1v0c6.7,0,12.2,5.5,12.2,12.2c0,3-1.1,5.9-3.1,8.1
		c-0.6-2.4-2.6-4.7-5.3-4.7h-7.7c-2.6,0-4.7,2.3-5.3,4.7C33.4,17.2,33.8,9.4,38.9,5z M6.7,42.8L6.7,42.8c0-0.1,0-0.2,0-0.2
		c0-1.9,1.6-4.2,3.5-4.2h7.7c2,0,3.5,2.3,3.5,4.2c0,0.1,0,0.2,0,0.2C17.1,46.2,11,46.2,6.7,42.8z M23.2,41.2L23.2,41.2
		c-0.6-2.4-2.6-4.7-5.3-4.7h-7.7c-2.6,0-4.7,2.3-5.3,4.7c-4.5-5-4.1-12.8,0.9-17.3c5-4.5,12.8-4.1,17.3,0.9
		C27.4,29.5,27.4,36.6,23.2,41.2z M27.6,37.1c1-3.4,0.7-7-0.8-10.1c0,0,0.1,0,0.1,0l8.3-5c2.6,3.9,7,6.2,11.7,6.2c0.3,0,0.6,0,0.9,0
		l1,7.7c-4.3,0.3-8.3,2.7-10.7,6.3c0,0,0-0.1-0.1-0.1v0L27.6,37.1z M42.5,59.6L42.5,59.6c0-0.1,0-0.2,0-0.2c0-1.9,1.6-4.2,3.5-4.2
		h7.7c2,0,3.5,2.3,3.5,4.2c0,0.1,0,0.2,0,0.2C52.9,62.9,46.8,62.9,42.5,59.6z M59,58L59,58c-0.6-2.4-2.6-4.7-5.3-4.7h-7.7
		c-2.6,0-4.7,2.3-5.3,4.7c-4.5-5-4.1-12.8,0.9-17.3s12.8-4.1,17.3,0.9C63.2,46.3,63.2,53.3,59,58z"/>
</g>
</svg>
