<?xml version="1.0" encoding="utf-8"?>
<!-- Generator: Adobe Illustrator 28.2.0, SVG Export Plug-In . SVG Version: 6.00 Build 0)  -->
<svg version="1.1" id="Camada_1" xmlns="http://www.w3.org/2000/svg" xmlns:xlink="http://www.w3.org/1999/xlink" x="0px" y="0px"
	 viewBox="0 0 64 64" style="enable-background:new 0 0 64 64;" xml:space="preserve">
<g>
	<path d="M38.9,50.5L38.9,50.5l-0.2,0c-0.4,0-0.7,0.2-0.8,0.6c-0.1-0.4-0.4-0.6-0.8-0.6H3c-0.7,0-1.3-0.6-1.3-1.3c0,0,0,0,0,0V30.7
		h38.7c0.5,0,0.8-0.4,0.8-0.9c0-0.4-0.4-0.8-0.8-0.8H1.7V16.6h52.7v6.3c0,0.5,0.4,0.8,0.9,0.8c0.4,0,0.8-0.4,0.8-0.8V10.2
		c0-1.7-1.4-3-3-3H3c-1.7,0-3,1.4-3,3v39c0,1.7,1.4,3,3,3c0,0,0,0,0,0h34c0.4,0,0.7-0.2,0.8-0.6c0.1,0.4,0.4,0.6,0.8,0.6h0.2
		c0.5,0,0.8-0.4,0.8-0.9C39.7,50.9,39.3,50.6,38.9,50.5z M1.7,10.2c0-0.7,0.6-1.3,1.3-1.3c0,0,0,0,0,0h50.1c0.7,0,1.3,0.6,1.3,1.3
		c0,0,0,0,0,0v4.7H1.7V10.2z"/>
	<path d="M6.5,11H4.6c-0.5,0-0.9,0.3-0.9,0.8c0,0.5,0.3,0.9,0.8,0.9c0,0,0.1,0,0.1,0h1.9c0.5,0,0.8-0.4,0.8-0.9
		C7.3,11.4,6.9,11.1,6.5,11z"/>
	<path d="M10.7,11H8.8c-0.5,0-0.8,0.4-0.8,0.9c0,0.4,0.4,0.8,0.8,0.8h1.9c0.5,0,0.8-0.4,0.8-0.9C11.5,11.4,11.1,11.1,10.7,11z"/>
	<path d="M15,11c0,0-0.1,0-0.1,0H13c-0.5,0-0.8,0.4-0.8,0.9c0,0.4,0.4,0.8,0.8,0.8h1.9c0.5,0,0.9-0.3,0.9-0.8S15.5,11.1,15,11z"/>
	<path d="M24.3,22c-0.5,0-0.9,0.3-0.9,0.8s0.3,0.9,0.8,0.9c0,0,0.1,0,0.1,0h8.4c0.5,0,0.8-0.4,0.8-0.9c0-0.4-0.4-0.8-0.8-0.8H24.3z"
		/>
	<path d="M9.4,34c-0.5,0-0.9,0.4-0.9,0.9v8.5c0,0.1,0,0.1,0,0.2c0,0.1,0,0.1,0,0.2c0,0.1,0.1,0.2,0.2,0.3c0.2,0.2,0.4,0.3,0.6,0.3
		H18c0.5,0,0.9-0.4,0.9-0.9v-8.6c0-0.5-0.4-0.9-0.9-0.9H9.4z M10.2,35.7l5.7,0l-5.7,5.7V35.7z M17.1,42.6h-5.7l5.7-5.7V42.6z"/>
	<path d="M24.7,34c-0.5,0-0.9,0.4-0.9,0.9v8.6c0,0.1,0,0.1,0,0.2c0,0.2,0.1,0.3,0.2,0.4c0.2,0.2,0.4,0.3,0.6,0.3h8.6
		c0.5,0,0.9-0.4,0.9-0.9v-8.6c0-0.5-0.4-0.9-0.9-0.9H24.7z M25.6,35.7h5.7v0l-5.7,5.7V35.7z M32.5,42.6h-5.7l5.7-5.7V42.6z"/>
	<path d="M64,48.7V38.1c0-1.6-1.3-3-3-3c-0.5,0-1,0.1-1.5,0.4c-0.4-1.1-1.5-1.9-2.7-1.9c-0.5,0-1.1,0.1-1.5,0.4
		c-0.7-1.5-2.5-2.2-4.1-1.5c0,0,0,0,0,0v-4.3c0-1.6-1.3-2.9-2.9-2.9c-1.6,0-2.9,1.3-2.9,2.9v12.3l-0.6-0.8c-1-1.4-3-1.8-4.4-0.8
		c-1.4,1-1.8,2.9-0.8,4.3l4.7,8.9c1.6,3,4.6,4.5,6.2,4.5h5.9c1.9,0,6.1-2,7.4-6.7c0.1-0.2,0.2-0.5,0.2-0.7C64,49.1,64,48.9,64,48.7z
		 M62.3,49.1L62.3,49.1c0,0.1,0,0.1,0,0.2c0,0.1,0,0.1,0,0.2c0,0,0,0.1,0,0.1c-1,3.9-4.5,5.5-5.7,5.5h-5.9c-1,0-3.5-1.2-4.7-3.6
		l-4.7-9c0,0,0-0.1-0.1-0.1c-0.5-0.7-0.3-1.5,0.4-2c0,0,0,0,0,0c0.2-0.2,0.5-0.3,0.8-0.3c0.5,0,0.9,0.2,1.2,0.6l2.1,3
		c0.3,0.4,0.8,0.5,1.2,0.2c0.2-0.2,0.4-0.4,0.4-0.7V28.3c0-0.7,0.5-1.2,1.2-1.2c0.7,0,1.2,0.5,1.2,1.2v11.5c0,0.5,0.4,0.8,0.9,0.8
		c0.4,0,0.8-0.4,0.8-0.8V35c0.2-0.7,0.9-1.2,1.7-1c0.6,0.2,1,0.7,1,1.3v5.1c0,0.5,0.4,0.8,0.9,0.8c0.4,0,0.8-0.4,0.8-0.8v-3.9
		c0-0.7,0.5-1.2,1.2-1.2c0,0,0,0,0,0c0.7,0,1.2,0.6,1.2,1.2v4.5c0,0.5,0.4,0.8,0.9,0.8c0.4,0,0.8-0.4,0.8-0.8v-3
		c0-0.7,0.6-1.3,1.3-1.2c0.7,0,1.2,0.6,1.2,1.2v10.5c0,0.1,0,0.2,0,0.3C62.3,49,62.3,49,62.3,49.1z"/>
</g>
</svg>
