<?xml version="1.0" encoding="utf-8"?>
<!-- Generator: Adobe Illustrator 28.2.0, SVG Export Plug-In . SVG Version: 6.00 Build 0)  -->
<svg version="1.1" id="Camada_1" xmlns="http://www.w3.org/2000/svg" xmlns:xlink="http://www.w3.org/1999/xlink" x="0px" y="0px"
	 viewBox="0 0 16 16" style="enable-background:new 0 0 16 16;" xml:space="preserve">
<style type="text/css">
	.st0{fill:#76CB61;}
</style>
<path class="st0" d="M16,2.9l-0.2-0.2c-0.2-0.2-0.4-0.2-0.6-0.2c0,0,0,0,0,0c-0.2,0-0.4,0.1-0.6,0.2l-9,9L1.4,7.4
	c-0.3-0.3-0.9-0.3-1.2,0C0.1,7.6,0,7.8,0,8s0.1,0.4,0.2,0.6L5,13.4c0.2,0.2,0.4,0.2,0.6,0.2c0.2,0,0.4-0.1,0.6-0.2l9.5-9.5
	C16,3.6,16,3.2,16,2.9L16,2.9z"/>
</svg>
