<?xml version="1.0" encoding="UTF-8"?>
<svg id="Camada_1" data-name="Camada 1" xmlns="http://www.w3.org/2000/svg" version="1.1" viewBox="0 0 32 32">
  <defs>
    <style>
      .cls-1 {
        fill: #000;
        stroke-width: 0px;
      }
    </style>
  </defs>
  <g id="Grupo_de_máscara_20" data-name="Grupo de máscara 20">
    <g id="_TEMP_SVG" data-name="  TEMP  SVG">
      <path id="Caminho_110" data-name="Caminho 110" class="cls-1" d="M16,18.3c-3.2,0-5.7-2.6-5.7-5.7s2.6-5.7,5.7-5.7,5.7,2.6,5.7,5.7h0c0,3.2-2.6,5.7-5.7,5.7ZM16,9.1c-1.9,0-3.4,1.5-3.4,3.4s1.5,3.4,3.4,3.4,3.4-1.5,3.4-3.4c0-1.9-1.5-3.4-3.4-3.4h0Z"/>
      <path id="Caminho_111" data-name="Caminho 111" class="cls-1" d="M16,32l-9.6-11.4c-.1-.2-.3-.3-.4-.5-1.6-2.2-2.5-4.8-2.5-7.5C3.4,5.6,9.1,0,16,0s12.6,5.6,12.6,12.6c0,2.7-.9,5.4-2.5,7.5h0s-.3.5-.4.5l-9.6,11.4ZM7.8,18.7s.3.4.3.4l7.9,9.3,7.9-9.3c0,0,.3-.4.3-.4,1.3-1.8,2.1-3.9,2.1-6.2,0-5.7-4.6-10.3-10.3-10.3-5.7,0-10.3,4.6-10.3,10.3,0,2.2.7,4.4,2.1,6.2h0Z"/>
    </g>
  </g>
</svg>