<?xml version="1.0" encoding="utf-8"?>
<!-- Generator: Adobe Illustrator 28.2.0, SVG Export Plug-In . SVG Version: 6.00 Build 0)  -->
<svg version="1.1" id="Camada_1" xmlns="http://www.w3.org/2000/svg" xmlns:xlink="http://www.w3.org/1999/xlink" x="0px" y="0px"
	 viewBox="0 0 80 80" style="enable-background:new 0 0 80 80;" xml:space="preserve">
<style type="text/css">
	.st0{fill:#030402;}
	.st1{fill:#050504;}
</style>
<g>
	<path class="st0" d="M28.9,0H10.1C4.8,0,0.4,4.4,0.4,9.7v18.8c0,5.3,4.4,9.7,9.7,9.7h18.8c5.3,0,9.7-4.4,9.7-9.7V9.7
		C38.6,4.4,34.2,0,28.9,0z M36,28.5c0,3.9-3.2,7.1-7.1,7.1H10.1c-3.9,0-7.1-3.2-7.1-7.1V9.7c0-3.9,3.2-7.1,7.1-7.1h18.8
		c3.9,0,7.1,3.2,7.1,7.1L36,28.5z"/>
	<path class="st0" d="M70,41.8H51.3c-5.3,0-9.7,4.4-9.7,9.7v18.8c0,5.3,4.4,9.7,9.7,9.7H70c5.3,0,9.7-4.4,9.7-9.7V51.5
		C79.7,46.2,75.4,41.8,70,41.8z M77.1,51.5v18.8c0,3.9-3.2,7.1-7.1,7.1H51.3c-3.9,0-7.1-3.2-7.1-7.1V51.5c0-3.9,3.2-7.1,7.1-7.1H70
		C73.9,44.4,77.1,47.6,77.1,51.5z"/>
	<path class="st0" d="M51,38.2h18.8c5.3,0,9.7-4.4,9.7-9.7V9.7c0-5.3-4.4-9.7-9.7-9.7H51c-5.3,0-9.7,4.4-9.7,9.7v18.8
		C41.3,33.8,45.6,38.2,51,38.2z M43.9,28.5V9.7c0-3.9,3.2-7.1,7.1-7.1h18.8c3.9,0,7.1,3.2,7.1,7.1v18.8c0,3.9-3.2,7.1-7.1,7.1H51
		C47.1,35.6,43.9,32.4,43.9,28.5z"/>
	<path class="st0" d="M28.8,41.7H10c-5.3,0-9.7,4.4-9.7,9.7v18.8c0,5.3,4.4,9.7,9.7,9.7h18.8c5.3,0,9.7-4.4,9.7-9.7V51.4
		C38.4,46,34.1,41.7,28.8,41.7z M35.8,51.4v18.8c0,3.9-3.2,7.1-7.1,7.1H10c-3.9,0-7.1-3.2-7.1-7.1V51.4c0-3.9,3.2-7.1,7.1-7.1h18.8
		C32.7,44.3,35.8,47.5,35.8,51.4z"/>
	<path class="st1" d="M31.1,11.7c-0.5-0.5-1.3-0.7-1.9-0.4L29,11.1L16.3,23.8l-5.4-5.4c-0.3-0.3-0.8-0.5-1.3-0.5c0,0,0,0,0,0
		c-0.5,0-1,0.2-1.3,0.5c-0.7,0.7-0.7,1.9,0,2.6l6.7,6.7c0.3,0.3,0.8,0.5,1.3,0.5c0.5,0,0.9-0.2,1.3-0.5l13.4-13.4
		c0.3-0.3,0.5-0.8,0.5-1.3C31.6,12.5,31.4,12,31.1,11.7z"/>
</g>
</svg>
