<svg xmlns="http://www.w3.org/2000/svg" xmlns:xlink="http://www.w3.org/1999/xlink" width="80" height="80" viewBox="0 0 80 80">
  <defs>
    <clipPath id="clip-path">
      <rect id="Ret칙ngulo_39" data-name="Ret칙ngulo 39" width="80" height="80" transform="translate(460 2630)" fill="#fff" stroke="#707070" stroke-width="1"/>
    </clipPath>
  </defs>
  <g id="Grupo_de_m치scara_28" data-name="Grupo de m치scara 28" transform="translate(-460 -2630)" clip-path="url(#clip-path)">
    <g id="Icons" transform="translate(462.58 2630)">
      <g id="Grupo_130" data-name="Grupo 130">
        <path id="Caminho_131" data-name="Caminho 131" d="M43.871,80H5.161A5.167,5.167,0,0,1,0,74.839V5.161A5.167,5.167,0,0,1,5.161,0h38.71a5.167,5.167,0,0,1,5.161,5.161V74.839A5.167,5.167,0,0,1,43.871,80ZM5.161,2.581A2.584,2.584,0,0,0,2.581,5.161V74.839a2.584,2.584,0,0,0,2.581,2.581h38.71a2.584,2.584,0,0,0,2.581-2.581V5.161a2.584,2.584,0,0,0-2.581-2.581Z"/>
        <path id="Caminho_132" data-name="Caminho 132" d="M47.742,72.258H1.29a1.29,1.29,0,0,1,0-2.581H47.742a1.29,1.29,0,0,1,0,2.581Z"/>
        <path id="Caminho_133" data-name="Caminho 133" d="M25.806,6.452H21.935a1.29,1.29,0,1,1,0-2.581h3.871a1.29,1.29,0,1,1,0,2.581Z"/>
        <path id="Caminho_134" data-name="Caminho 134" d="M30.968,6.452a1.2,1.2,0,0,1-.252-.026,1.266,1.266,0,0,1-.242-.073,1.284,1.284,0,0,1-.223-.119,1.252,1.252,0,0,1-.2-.16,1.3,1.3,0,0,1-.377-.913A1.2,1.2,0,0,1,29.7,4.91a1.266,1.266,0,0,1,.073-.242,1.284,1.284,0,0,1,.119-.223,1.224,1.224,0,0,1,.356-.356,1.284,1.284,0,0,1,.223-.119,1.3,1.3,0,0,1,.987,0,1.284,1.284,0,0,1,.223.119,1.253,1.253,0,0,1,.2.16,1.351,1.351,0,0,1,.16.2,1.284,1.284,0,0,1,.119.223,1.266,1.266,0,0,1,.073.242,1.2,1.2,0,0,1,.026.252,1.3,1.3,0,0,1-.377.913,1.253,1.253,0,0,1-.2.16,1.284,1.284,0,0,1-.223.119,1.266,1.266,0,0,1-.242.073,1.2,1.2,0,0,1-.252.026Z"/>
        <path id="Caminho_135" data-name="Caminho 135" d="M47.742,10.323H1.29a1.29,1.29,0,1,1,0-2.581H47.742a1.29,1.29,0,0,1,0,2.581Z"/>
        <g id="Grupo_129" data-name="Grupo 129">
          <path id="Caminho_136" data-name="Caminho 136" d="M43.755,36.215a1.3,1.3,0,0,1-.34-.045L24.177,30.923a1.29,1.29,0,0,1,.679-2.489l19.237,5.247a1.291,1.291,0,0,1-.339,2.535Z"/>
          <line id="Linha_12" data-name="Linha 12" x1="3.903" y1="1.065" transform="translate(43.753 34.924)" fill="none"/>
          <g id="Grupo_126" data-name="Grupo 126">
            <path id="Caminho_137" data-name="Caminho 137" d="M73.284,24.7a1.29,1.29,0,0,1-.732-2.353l.266-.182a1.29,1.29,0,1,1,1.461,2.126l-.266.182A1.284,1.284,0,0,1,73.284,24.7Z"/>
            <path id="Caminho_138" data-name="Caminho 138" d="M57.768,35.366a1.29,1.29,0,0,1-.732-2.353l.574-.4a1.29,1.29,0,0,1,1.461,2.126l-.574.4A1.284,1.284,0,0,1,57.768,35.366Zm5.173-3.555a1.29,1.29,0,0,1-.732-2.353l.574-.4a1.29,1.29,0,1,1,1.461,2.126l-.574.4A1.284,1.284,0,0,1,62.94,31.811Zm5.173-3.556a1.29,1.29,0,0,1-.732-2.353l.574-.4a1.29,1.29,0,1,1,1.461,2.126l-.574.4A1.284,1.284,0,0,1,68.113,28.255Z"/>
            <path id="Caminho_139" data-name="Caminho 139" d="M52.9,38.71a1.3,1.3,0,0,1-.34-.045l-.311-.085a1.291,1.291,0,0,1,.419-2.534A1.29,1.29,0,0,1,53.9,38.3l-.266.182a1.283,1.283,0,0,1-.731.227Z"/>
          </g>
          <g id="Grupo_127" data-name="Grupo 127">
            <path id="Caminho_140" data-name="Caminho 140" d="M52.9,65.806a1.3,1.3,0,0,1-.34-.045l-.311-.085a1.293,1.293,0,0,1-.9-1.585,1.279,1.279,0,0,1,1.324-.948A1.29,1.29,0,0,1,53.9,65.4l-.266.182a1.283,1.283,0,0,1-.731.227Z"/>
            <path id="Caminho_141" data-name="Caminho 141" d="M57.768,62.463a1.29,1.29,0,0,1-.732-2.353l.574-.4a1.29,1.29,0,0,1,1.461,2.126l-.574.4A1.284,1.284,0,0,1,57.768,62.463Zm5.173-3.556a1.29,1.29,0,0,1-.732-2.353l.574-.4a1.29,1.29,0,1,1,1.461,2.126l-.574.4A1.284,1.284,0,0,1,62.94,58.906Zm5.171-3.555A1.29,1.29,0,0,1,67.379,53l.574-.4a1.29,1.29,0,1,1,1.461,2.126l-.574.4A1.284,1.284,0,0,1,68.111,55.352Z"/>
            <path id="Caminho_142" data-name="Caminho 142" d="M73.284,51.8a1.29,1.29,0,0,1-.981-2.129A1.291,1.291,0,0,1,74.84,50v.323a1.289,1.289,0,0,1-.56,1.063l-.266.182a1.284,1.284,0,0,1-.729.227Z"/>
            <path id="Caminho_143" data-name="Caminho 143" d="M73.548,46.481a1.29,1.29,0,0,1-1.29-1.29v-.6a1.29,1.29,0,1,1,2.581,0v.6A1.29,1.29,0,0,1,73.548,46.481Zm0-5.41a1.29,1.29,0,0,1-1.29-1.29v-.6a1.29,1.29,0,0,1,2.581,0v.6A1.29,1.29,0,0,1,73.548,41.071Zm0-5.411a1.29,1.29,0,0,1-1.29-1.29v-.6a1.29,1.29,0,1,1,2.581,0v.6A1.29,1.29,0,0,1,73.548,35.66Zm0-5.41a1.29,1.29,0,0,1-1.29-1.29v-.6a1.29,1.29,0,1,1,2.581,0v.6A1.29,1.29,0,0,1,73.548,30.25Z"/>
            <path id="Caminho_144" data-name="Caminho 144" d="M73.548,24.839a1.293,1.293,0,0,1-1.161-.726,1.291,1.291,0,0,1,1.19-2.216l.311.085a1.29,1.29,0,0,1,.95,1.245v.323a1.29,1.29,0,0,1-1.29,1.29Z"/>
            <path id="Caminho_145" data-name="Caminho 145" d="M68.66,23.182a1.256,1.256,0,0,1-.342-.047l-.573-.156a1.291,1.291,0,0,1,.681-2.49l.573.156a1.291,1.291,0,0,1-.339,2.535Zm-5.152-1.4a1.257,1.257,0,0,1-.342-.047l-.573-.156a1.291,1.291,0,0,1,.681-2.49l.573.156a1.291,1.291,0,0,1-.339,2.535Zm-5.152-1.4a1.237,1.237,0,0,1-.34-.047l-.573-.155a1.29,1.29,0,1,1,.677-2.49l.573.155a1.29,1.29,0,0,1-.337,2.535Zm-5.15-1.4a1.256,1.256,0,0,1-.342-.047l-.573-.156a1.291,1.291,0,0,1,.681-2.49l.573.156a1.291,1.291,0,0,1-.339,2.535Z"/>
          </g>
          <line id="Linha_13" data-name="Linha 13" x2="4.19" y2="1.144" transform="translate(43.466 61.942)" fill="none"/>
          <path id="Caminho_146" data-name="Caminho 146" d="M43.466,63.232a1.3,1.3,0,0,1-.34-.045L36.8,61.461a1.29,1.29,0,1,1,.679-2.489L43.8,60.7a1.291,1.291,0,0,1-.339,2.535Z"/>
          <path id="Caminho_147" data-name="Caminho 147" d="M27.131,58.777a1.3,1.3,0,0,1-.34-.045l-2.615-.713a1.291,1.291,0,0,1-.952-1.245v-27.1a1.291,1.291,0,0,1,.56-1.063l18.95-13.027A1.29,1.29,0,1,1,44.2,17.713L25.8,30.356V55.789l1.663.453a1.291,1.291,0,0,1-.339,2.535Z"/>
          <path id="Caminho_148" data-name="Caminho 148" d="M47.742,16.187l-2.581-.7-1.7,1.166" fill="none"/>
          <g id="Grupo_128" data-name="Grupo 128">
            <path id="Caminho_149" data-name="Caminho 149" d="M52.9,39.032a1.29,1.29,0,0,1-1.29-1.29v-.323a1.29,1.29,0,0,1,2.581,0v.323A1.29,1.29,0,0,1,52.9,39.032Z"/>
            <path id="Caminho_150" data-name="Caminho 150" d="M52.9,60.674a1.29,1.29,0,0,1-1.29-1.29v-.6a1.29,1.29,0,0,1,2.581,0v.6A1.29,1.29,0,0,1,52.9,60.674Zm0-5.411a1.29,1.29,0,0,1-1.29-1.29v-.6a1.29,1.29,0,0,1,2.581,0v.6A1.29,1.29,0,0,1,52.9,55.263Zm0-5.41a1.29,1.29,0,0,1-1.29-1.29v-.6a1.29,1.29,0,0,1,2.581,0v.6A1.29,1.29,0,0,1,52.9,49.853Zm0-5.411a1.29,1.29,0,0,1-1.29-1.29v-.6a1.29,1.29,0,1,1,2.581,0v.6A1.29,1.29,0,0,1,52.9,44.442Z"/>
            <path id="Caminho_151" data-name="Caminho 151" d="M52.9,65.806a1.29,1.29,0,0,1-1.29-1.29v-.323a1.29,1.29,0,1,1,2.581,0v.323A1.29,1.29,0,0,1,52.9,65.806Z"/>
          </g>
        </g>
        <path id="Caminho_152" data-name="Caminho 152" d="M29.677,20.645a1.29,1.29,0,0,1-.913-.377l-3.494-3.494H7.742a1.29,1.29,0,1,1,0-2.581H25.806a1.292,1.292,0,0,1,.913.377l3.871,3.871a1.29,1.29,0,0,1-.913,2.2Z"/>
        <path id="Caminho_153" data-name="Caminho 153" d="M15.484,21.935H7.742a1.29,1.29,0,0,1,0-2.581h7.742a1.29,1.29,0,0,1,0,2.581Z"/>
        <path id="Caminho_154" data-name="Caminho 154" d="M15.484,27.1H7.742a1.29,1.29,0,1,1,0-2.581h7.742a1.29,1.29,0,1,1,0,2.581Z"/>
        <path id="Caminho_155" data-name="Caminho 155" d="M25.806,65.806H7.742a1.29,1.29,0,0,1,0-2.581H25.273L36.508,51.99a1.29,1.29,0,0,1,1.824,1.824L26.719,65.427a1.292,1.292,0,0,1-.913.377Z"/>
        <path id="Caminho_156" data-name="Caminho 156" d="M15.484,60.645H7.742a1.29,1.29,0,0,1,0-2.581h7.742a1.29,1.29,0,0,1,0,2.581Z"/>
        <path id="Caminho_157" data-name="Caminho 157" d="M15.484,55.484H7.742a1.29,1.29,0,1,1,0-2.581h7.742a1.29,1.29,0,1,1,0,2.581Z"/>
      </g>
    </g>
  </g>
</svg>
