<?xml version="1.0" encoding="utf-8"?>
<!-- Generator: Adobe Illustrator 28.2.0, SVG Export Plug-In . SVG Version: 6.00 Build 0)  -->
<svg version="1.1" id="Camada_1" xmlns="http://www.w3.org/2000/svg" xmlns:xlink="http://www.w3.org/1999/xlink" x="0px" y="0px"
	 viewBox="0 0 80 80" style="enable-background:new 0 0 80 80;" xml:space="preserve">
<style type="text/css">
	.st0{fill:#030402;}
</style>
<g>
	<path class="st0" d="M72.5,1.8c0,0-0.1,0-0.1,0H7.6c0,0-0.1,0-0.1,0c-3.7,0-6.8,3-6.8,6.7v62.9c0.1,3.7,3.1,6.7,6.8,6.7
		c0,0,0.1,0,0.1,0h64.8c3.7,0.1,6.9-2.9,7-6.7V8.5C79.3,4.8,76.2,1.8,72.5,1.8z M76.9,71.5c-0.1,2.4-2.1,4.3-4.5,4.2H7.6
		c-2.4,0.1-4.4-1.8-4.5-4.2V15.4h73.7V71.5z M3.1,12.9V8.5c0.1-2.4,2.1-4.3,4.5-4.2h64.8c2.4,0,4.4,1.8,4.5,4.2l0,4.4H3.1z"/>
	<path class="st0" d="M9.2,6.6c-1.1,0-2,0.9-2,2s0.9,2,2,2c1.1,0,2-0.9,2-2S10.3,6.6,9.2,6.6z"/>
	<circle class="st0" cx="14.7" cy="8.6" r="2"/>
	<path class="st0" d="M40,57.2c6.5,0,11.7-5.2,11.7-11.7c0-6.4-5.3-11.7-11.7-11.7h0c-6.5,0-11.7,5.2-11.7,11.7
		C28.3,52,33.5,57.2,40,57.2z M40,36.3c5.1,0,9.2,4.1,9.2,9.2c0,5.1-4.1,9.2-9.2,9.2c-5.1,0-9.2-4.1-9.2-9.2
		C30.8,40.5,34.9,36.3,40,36.3z"/>
	<path class="st0" d="M18.7,53.2c0.8,2.6,2.2,5,4,6.9c0.8,0.9,2,1.3,3.1,1l4.2-0.8c0.7,0.4,1.4,0.8,2.1,1.2l1.4,4
		c0.4,1.1,1.3,1.9,2.5,2.2c1.3,0.3,2.7,0.4,4,0.4s2.7-0.1,4-0.4c1.2-0.3,2.1-1.1,2.5-2.2l1.4-4c0.7-0.4,1.4-0.8,2.1-1.2l4.2,0.8
		c1.2,0.2,2.3-0.2,3.1-1c1.8-2,3.2-4.4,4-6.9c0.4-1.1,0.1-2.3-0.7-3.2l-2.8-3.2c0-0.4,0-0.8,0-1.2c0-0.4,0-0.8,0-1.2l2.8-3.2
		c0.8-0.9,1-2.1,0.7-3.2c-0.8-2.6-2.2-5-4-6.9c-0.8-0.9-2-1.3-3.1-1L50,30.6c-0.7-0.4-1.4-0.9-2.1-1.2l-1.4-4
		c-0.4-1.1-1.3-1.9-2.5-2.2c-2.6-0.6-5.4-0.6-8,0c-1.2,0.3-2.1,1.1-2.5,2.2l-1.4,4c-0.7,0.4-1.4,0.8-2.1,1.2l-4.2-0.8
		c-1.2-0.2-2.3,0.2-3.1,1c-1.8,2-3.2,4.4-4,6.9c-0.4,1.1-0.1,2.3,0.7,3.2l2.8,3.2c0,0.4,0,0.8,0,1.2c0,0.4,0,0.8,0,1.2L19.4,50
		C18.6,50.9,18.3,52.1,18.7,53.2z M21.3,51.6l3.1-3.6c0.2-0.3,0.3-0.6,0.3-0.9c0-0.5-0.1-1-0.1-1.5c0-0.5,0-1,0.1-1.5
		c0-0.3-0.1-0.7-0.3-0.9l-3.1-3.6c-0.2-0.2-0.3-0.6-0.2-0.9c0.7-2.2,1.9-4.3,3.5-6c0.2-0.2,0.5-0.3,0.8-0.3l4.7,0.9
		c0.3,0.1,0.7,0,1-0.2c0.8-0.6,1.7-1.1,2.6-1.5c0.3-0.1,0.5-0.4,0.7-0.7l1.6-4.5c0.1-0.3,0.4-0.5,0.7-0.6c2.3-0.5,4.6-0.5,6.9,0
		c0.3,0.1,0.6,0.3,0.7,0.6l1.6,4.5c0.1,0.3,0.4,0.6,0.7,0.7c0.9,0.4,1.8,0.9,2.6,1.5c0.3,0.2,0.6,0.3,1,0.2l4.7-0.9
		c0.3-0.1,0.6,0,0.8,0.3c1.6,1.7,2.8,3.8,3.4,6c0.1,0.3,0,0.6-0.1,0.8l-3.1,3.7c-0.2,0.3-0.3,0.6-0.3,0.9c0,0.5,0.1,1,0.1,1.5
		c0,0.5,0,1-0.1,1.5c0,0.3,0.1,0.7,0.3,0.9l3.1,3.6c0.2,0.2,0.3,0.6,0.2,0.9c-0.7,2.2-1.9,4.3-3.5,6c-0.2,0.2-0.5,0.3-0.8,0.3
		l-4.7-0.9c-0.3-0.1-0.7,0-1,0.2c-0.8,0.6-1.7,1.1-2.6,1.5c-0.3,0.1-0.5,0.4-0.7,0.7l-1.6,4.5c-0.1,0.3-0.4,0.5-0.7,0.6
		c-2.3,0.5-4.6,0.5-6.9,0c-0.3-0.1-0.6-0.3-0.7-0.6l-1.6-4.5c-0.1-0.3-0.4-0.6-0.7-0.7c-0.9-0.4-1.8-0.9-2.6-1.5
		c-0.2-0.2-0.5-0.2-0.7-0.2c-0.1,0-0.1,0-0.2,0l-4.7,0.9c-0.3,0.1-0.6,0-0.8-0.3c-1.6-1.7-2.8-3.8-3.4-6
		C21,52.2,21.1,51.8,21.3,51.6z"/>
</g>
</svg>
