<?xml version="1.0" encoding="utf-8"?>
<!-- Generator: Adobe Illustrator 28.2.0, SVG Export Plug-In . SVG Version: 6.00 Build 0)  -->
<svg version="1.1" id="Camada_1" xmlns="http://www.w3.org/2000/svg" xmlns:xlink="http://www.w3.org/1999/xlink" x="0px" y="0px"
	 viewBox="0 0 80 80" style="enable-background:new 0 0 80 80;" xml:space="preserve">
<style type="text/css">
	.st0{fill:#030402;}
</style>
<g>
	<path class="st0" d="M66.5,56.5C66.5,56.5,66.5,56.5,66.5,56.5c-0.7,0-1.2,0.5-1.2,1.2v10.6c0,2.1-1.7,3.7-3.7,3.7H6.1
		c-2.1,0-3.7-1.7-3.7-3.7V17.9h63v5.2c0,0.6,0.5,1.2,1.2,1.2s1.2-0.5,1.2-1.2V11.7c0-3.3-2.7-6.1-6.1-6.1H6.1c-3.3,0-6,2.7-6.1,6.1
		v56.7c0,3.3,2.7,6,6.1,6.1h55.5c3.3,0,6-2.7,6.1-6.1V57.7C67.7,57.1,67.2,56.6,66.5,56.5z M2.3,15.6v-3.9c0-2.1,1.7-3.7,3.7-3.7
		h55.5c2.1,0,3.7,1.7,3.7,3.7v3.9H2.3z"/>
	<path class="st0" d="M34.2,23.7c0-0.6-0.5-1.2-1.2-1.2H8.6c-0.6,0-1.2,0.5-1.2,1.2v21.7c0,0.6,0.5,1.2,1.2,1.2H33
		c0.6,0,1.2-0.5,1.2-1.2V23.7z M9.7,44.3V24.9h22.1v19.4H9.7z"/>
	<path class="st0" d="M34.2,53.8c0-0.6-0.5-1.2-1.2-1.2H8.6c-0.6,0-1.2,0.5-1.2,1.2c0,0.6,0.5,1.2,1.2,1.2H33
		C33.7,55,34.2,54.5,34.2,53.8z"/>
	<path class="st0" d="M55.6,27.5H40.9c0,0,0,0,0,0c-0.3,0-0.6,0.1-0.8,0.3s-0.3,0.5-0.3,0.8c0,0.6,0.5,1.2,1.2,1.2h14.7
		c0.3,0,0.6-0.1,0.8-0.3c0.2-0.2,0.3-0.5,0.3-0.8C56.8,28,56.3,27.5,55.6,27.5z"/>
	<path class="st0" d="M55.6,34.4H40.9c0,0,0,0,0,0c-0.3,0-0.6,0.1-0.8,0.3c-0.2,0.2-0.3,0.5-0.3,0.8c0,0.3,0.1,0.6,0.3,0.8
		c0.2,0.2,0.5,0.3,0.8,0.3h14.7c0.3,0,0.6-0.1,0.8-0.3c0.2-0.2,0.3-0.5,0.3-0.8C56.8,34.9,56.3,34.4,55.6,34.4z"/>
	<path class="st0" d="M8.6,61.1c-0.6,0-1.2,0.5-1.2,1.2c0,0.6,0.5,1.2,1.2,1.2h12.2c0.6,0,1.2-0.5,1.2-1.2c0-0.6-0.5-1.2-1.2-1.2
		H8.6z"/>
	<path class="st0" d="M79.2,32.6C79.2,32.6,79.1,32.6,79.2,32.6C79.1,32.6,79.1,32.6,79.2,32.6l-4.3-4.3c-1.2-1.1-3-1.1-4.2,0
		L43.3,55.7c-1.1,1.1-1.9,2.6-2.1,4.2l-0.6,3.8c-0.1,0.7,0.1,1.5,0.5,2.1c0.4,0.6,1.1,1,1.8,1.1c0.1,0,0.3,0,0.4,0
		c0.1,0,0.3,0,0.4,0l3.8-0.6c1.6-0.2,3-1,4.2-2.1l27.4-27.4C80.3,35.7,80.3,33.8,79.2,32.6z M77.7,34.7
		C77.7,34.7,77.7,34.7,77.7,34.7c0,0.2-0.1,0.4-0.2,0.5l-3.9,3.9l-5.2-5.2l3.9-3.9c0.3-0.3,0.7-0.3,0.9,0l4.3,4.3
		C77.6,34.4,77.7,34.5,77.7,34.7z M72,40.7L50.1,62.6c-0.8,0.8-1.8,1.3-2.9,1.5l-3.8,0.6c-0.3,0-0.5-0.1-0.6-0.4c0-0.1,0-0.1,0-0.2
		l0.6-3.8c0.2-1.1,0.7-2.1,1.5-2.9l21.9-21.9L72,40.7z"/>
	<path class="st0" d="M7.8,9.9c-1,0-1.8,0.8-1.8,1.8s0.8,1.8,1.8,1.8c1,0,1.8-0.8,1.8-1.8S8.8,9.9,7.8,9.9z"/>
	<path class="st0" d="M12.6,9.9c-1,0-1.8,0.8-1.8,1.8s0.8,1.8,1.8,1.8c1,0,1.8-0.8,1.8-1.8S13.7,9.9,12.6,9.9z"/>
</g>
</svg>
