<?xml version="1.0" encoding="utf-8"?>
<!-- Generator: Adobe Illustrator 28.2.0, SVG Export Plug-In . SVG Version: 6.00 Build 0)  -->
<svg version="1.1" id="Camada_2_00000072240672894532833630000000250402986699012484_"
	 xmlns="http://www.w3.org/2000/svg" xmlns:xlink="http://www.w3.org/1999/xlink" x="0px" y="0px" viewBox="0 0 133.4 135.1"
	 style="enable-background:new 0 0 133.4 135.1;" xml:space="preserve">
<style type="text/css">
	.st0{fill:#848688;}
</style>
<g id="Camada_1-2">
	<g>
		<path class="st0" d="M107.4,68.3c0,0.8,0.7,1.5,1.5,1.5s1.5-0.7,1.5-1.5v-1.6h9.5c0.7,3,3.4,5.3,6.7,5.3c3.8,0,6.8-3.1,6.8-6.8
			s-3.1-6.8-6.8-6.8c-3.2,0-6,2.3-6.7,5.3h-9.5V38.2c0-0.8-0.7-1.5-1.5-1.5h-4.5v-9c0-0.8-0.7-1.5-1.5-1.5s-1.5,0.7-1.5,1.5v9h-9.6
			V13.5c3-0.7,5.3-3.4,5.3-6.6c0-3.8-3.1-6.8-6.8-6.8s-6.8,3.1-6.8,6.8c0,3.2,2.3,6,5.3,6.6v23.2h-9.6v-9c0-0.8-0.7-1.5-1.5-1.5
			s-1.5,0.7-1.5,1.5v9h-9.6v-9c0-0.8-0.7-1.5-1.5-1.5s-1.5,0.7-1.5,1.5v9h-9.6v-9c0-0.8-0.7-1.5-1.5-1.5s-1.5,0.7-1.5,1.5v9h-4
			c-0.8,0-1.5,0.7-1.5,1.5v7H34.9c-0.8,0-1.5,0.7-1.5,1.5s0.7,1.5,1.5,1.5h10.8v15.5H34.9c-0.7-3-3.4-5.3-6.6-5.3
			c-3.8,0-6.8,3.1-6.8,6.8c0,3.8,3.1,6.8,6.8,6.8c3.2,0,6-2.3,6.6-5.3h10.7v19.9H29c-0.4,0-0.8,0.2-1.1,0.4l-13.1,13.1
			c-1.1-0.7-2.3-1.1-3.7-1.1c-3.8,0-6.8,3.1-6.8,6.8s3.1,6.8,6.8,6.8s6.8-3.1,6.8-6.8c0-1.3-0.4-2.6-1-3.6l12.6-12.6h16.1V100
			c0,0.8,0.7,1.5,1.5,1.5h4v9c0,0.8,0.7,1.5,1.5,1.5s1.5-0.7,1.5-1.5v-9h9.6v20.1c-3,0.7-5.3,3.4-5.3,6.7c0,3.8,3.1,6.8,6.8,6.8
			c3.8,0,6.8-3.1,6.8-6.8c0-3.2-2.3-6-5.3-6.7v-20.1h9.6v9c0,0.8,0.7,1.5,1.5,1.5s1.5-0.7,1.5-1.5v-9h9.6v9c0,0.8,0.7,1.5,1.5,1.5
			s1.5-0.7,1.5-1.5v-9h9.6v9c0,0.8,0.7,1.5,1.5,1.5s1.5-0.7,1.5-1.5v-9h4.5c0.8,0,1.5-0.7,1.5-1.5v-7.6h6c1,2.5,3.5,4.3,6.3,4.3
			c3.8,0,6.8-3.1,6.8-6.8s-3.1-6.8-6.8-6.8s-6.6,2.8-6.8,6.3h-5.5v-3.8c0-0.8-0.7-1.5-1.5-1.5s-1.5,0.7-1.5,1.5v12.9H48.7V39.7h58.8
			L107.4,68.3L107.4,68.3z M126.6,61.4c2.1,0,3.8,1.7,3.8,3.8c0,2.1-1.7,3.8-3.8,3.8s-3.8-1.7-3.8-3.8S124.5,61.4,126.6,61.4z
			 M86.6,6.8c0-2.1,1.7-3.8,3.8-3.8s3.8,1.7,3.8,3.8s-1.7,3.8-3.8,3.8S86.6,8.9,86.6,6.8z M28.3,69c-2.1,0-3.8-1.7-3.8-3.8
			s1.7-3.8,3.8-3.8s3.8,1.7,3.8,3.8S30.4,69,28.3,69z M11.2,109.7c-2.1,0-3.8-1.7-3.8-3.8s1.7-3.8,3.8-3.8c0.8,0,1.6,0.3,2.2,0.7
			c0.1,0.2,0.2,0.4,0.3,0.6c0.2,0.2,0.4,0.3,0.6,0.3c0.4,0.6,0.7,1.4,0.7,2.2C15,108,13.3,109.7,11.2,109.7z M69.1,128.2
			c0,2.1-1.7,3.8-3.8,3.8s-3.8-1.7-3.8-3.8c0-2.1,1.7-3.8,3.8-3.8S69.1,126.1,69.1,128.2z M122.7,86c2.1,0,3.8,1.7,3.8,3.8
			s-1.7,3.8-3.8,3.8s-3.8-1.7-3.8-3.8S120.6,86,122.7,86z"/>
		<path class="st0" d="M62.6,52.1c-0.8,0-1.5,0.7-1.5,1.5v30.9c0,0.8,0.7,1.5,1.5,1.5h30.9c0.8,0,1.5-0.7,1.5-1.5V53.6
			c0-0.8-0.7-1.5-1.5-1.5C93.5,52.1,62.6,52.1,62.6,52.1z M92,83H64.1V55.1H92V83z"/>
		<path class="st0" d="M13.5,48.2H23c0.8,0,1.5-0.7,1.5-1.5s-0.7-1.5-1.5-1.5h-9.5c-0.7-3-3.4-5.3-6.7-5.3C3.1,39.9,0,43,0,46.7
			s3.1,6.8,6.8,6.8C10.1,53.6,12.8,51.3,13.5,48.2z M3,46.7c0-2.1,1.7-3.8,3.8-3.8s3.8,1.7,3.8,3.8s-1.7,3.8-3.8,3.8S3,48.8,3,46.7z
			"/>
	</g>
</g>
</svg>
