<?xml version="1.0" encoding="utf-8"?>
<!-- Generator: Adobe Illustrator 28.2.0, SVG Export Plug-In . SVG Version: 6.00 Build 0)  -->
<svg version="1.1" id="Camada_2_00000125560858461710801630000009708269445016130216_"
	 xmlns="http://www.w3.org/2000/svg" xmlns:xlink="http://www.w3.org/1999/xlink" x="0px" y="0px" viewBox="0 0 541.6 541.6"
	 style="enable-background:new 0 0 541.6 541.6;" xml:space="preserve">
<style type="text/css">
	.st0{fill:#848688;}
</style>
<g id="icon">
	<g>
		<path class="st0" d="M487.5,279.8c2.4,0,4.7-1,6.4-2.6l17-17.1c2.5,1,5.3,1.6,8.2,1.6c12.5,0,22.6-10.1,22.6-22.6
			s-10.1-22.6-22.6-22.6s-22.6,10.1-22.6,22.6c0,2.9,0.6,5.7,1.6,8.2l-14.4,14.3h-68.5v-18.1h54.2c5,0,9-4.1,9-9s-4.1-9-9-9h-54.2
			v-18.1h27.1c2.4,0,4.7-1,6.4-2.6l33.4-33.5h16.2c3.5,7.9,11.5,13.5,20.7,13.5c12.5,0,22.6-10.1,22.6-22.6s-10.1-22.6-22.6-22.6
			c-9.2,0-17.1,5.6-20.7,13.5h-20c-2.4,0-4.7,1-6.4,2.6l-33.4,33.5h-23.4V179c0-7.2-2.8-14.1-7.9-19.1l-25.5-25.6
			c-5.1-5.1-11.9-7.9-19.1-7.9H352V103l33.5-33.4c1.6-1.7,2.6-4,2.6-6.4v-20c7.9-3.5,13.5-11.5,13.5-20.7
			c0-12.5-10.1-22.6-22.6-22.6s-22.6,10.1-22.6,22.6c0,9.2,5.6,17.1,13.5,20.7v16.2l-33.5,33.4c-1.6,1.7-2.6,4-2.6,6.4v27.1h-18
			V72.2c0-5-4.1-9-9-9s-9,4.1-9,9v54.2h-18V57.9l14.4-14.3c2.5,1,5.3,1.6,8.2,1.6c12.5,0,22.6-10.1,22.6-22.6S314.9,0,302.4,0
			s-22.6,10.1-22.6,22.6c0,2.9,0.6,5.7,1.6,8.2l-17.1,17c-1.6,1.7-2.6,4-2.6,6.4v72.2h-18.1V54.2c0-5-4.1-9-9-9s-9,4.1-9,9v72.2
			h-18.1V81.2c0-3.4-1.9-6.6-5-8l-31.1-15.6v-9.8c7.9-3.5,13.5-11.5,13.5-20.7c0-12.5-10.1-22.6-22.6-22.6s-22.6,10.1-22.6,22.6
			c0,9.2,5.6,17.1,13.5,20.7v15.4c0,3.4,1.9,6.6,5,8l31.1,15.6v39.5H179c-7.2,0-14.1,2.8-19.1,7.9l-25.6,25.6
			c-5.1,5.1-7.9,11.9-7.9,19.1v10.6H103l-33.4-33.5c-1.7-1.6-4-2.6-6.4-2.6h-20c-3.5-7.9-11.5-13.5-20.7-13.5
			C10.1,139.9,0,150,0,162.5s10.1,22.6,22.6,22.6c9.2,0,17.1-5.6,20.7-13.5h16.2L92.9,205c1.7,1.6,4,2.6,6.4,2.6h27.1v18.1H72.2
			c-5,0-9,4.1-9,9s4.1,9,9,9h54.2v18.1H57.9l-14.3-14.4c1-2.5,1.6-5.3,1.6-8.2c0-12.5-10.1-22.6-22.6-22.6S0,226.8,0,239.2
			s10.1,22.6,22.6,22.6c2.9,0,5.7-0.6,8.2-1.6l17,17.1c1.7,1.6,4,2.6,6.4,2.6h72.2v18H54.2c-5,0-9,4.1-9,9s4.1,9,9,9h72.2v18H81.2
			c-3.4,0-6.5,1.9-8,5l-15.6,31.1h-9.8c-3.5-7.9-11.5-13.5-20.7-13.5c-12.5,0-22.6,10.1-22.6,22.6s10.1,22.6,22.6,22.6
			c9.2,0,17.1-5.6,20.7-13.5h15.4c3.4,0,6.5-1.9,8-5l15.6-31.1h39.5v10.6c0,7.2,2.8,14.1,7.9,19.1l25.6,25.5
			c5.1,5.1,11.9,7.9,19.1,7.9h10.6v39.5l-31.1,15.6c-3.1,1.4-5,4.6-5,8v15.4c-7.9,3.5-13.5,11.5-13.5,20.7
			c0,12.5,10.1,22.6,22.6,22.6s22.6-10.1,22.6-22.6c0-9.2-5.6-17.1-13.5-20.7v-9.8l31.1-15.6c3.1-1.4,5-4.6,5-8v-45.1h18.1v72.2
			c0,5,4.1,9,9,9s9-4.1,9-9v-72.2h18.1v72.2c0,2.4,1,4.7,2.6,6.4l17.1,17c-1,2.5-1.6,5.3-1.6,8.2c0,12.5,10.1,22.6,22.6,22.6
			s22.6-10.1,22.6-22.6s-10.1-22.6-22.6-22.6c-2.9,0-5.7,0.6-8.2,1.6l-14.4-14.4v-68.5h18v54.2c0,5,4.1,9,9,9s9-4.1,9-9v-54.2h18
			v27.1c0,2.4,1,4.7,2.6,6.4l33.5,33.4v16.2c-7.9,3.5-13.5,11.5-13.5,20.7c0,12.5,10.1,22.6,22.6,22.6s22.6-10.1,22.6-22.6
			c0-9.2-5.6-17.1-13.5-20.7v-20c0-2.4-1-4.7-2.6-6.4l-33.5-33.4v-23.4h10.6c7.2,0,14.1-2.8,19.1-7.9l25.5-25.5
			c5.1-5.1,7.9-11.9,7.9-19.1v-10.6h39.5l15.6,31.1c1.5,3.1,4.6,5,8,5h15.4c3.5,7.9,11.5,13.5,20.7,13.5c12.5,0,22.6-10.1,22.6-22.6
			s-10.1-22.6-22.6-22.6c-9.2,0-17.1,5.6-20.7,13.5h-9.8L468.5,339c-1.5-3.1-4.6-5-8-5h-45.1v-18h72.2c5,0,9-4.1,9-9s-4.1-9-9-9
			h-72.2v-18L487.5,279.8L487.5,279.8z M519.1,234.7c2.5,0,4.5,2,4.5,4.5s-2,4.5-4.5,4.5c-1.3,0-2.3-0.5-3.2-1.4
			c-0.8-0.8-1.3-1.9-1.3-3.2C514.6,236.7,516.5,234.7,519.1,234.7L519.1,234.7z M519.1,158c2.5,0,4.5,2,4.5,4.5s-2,4.5-4.5,4.5
			s-4.5-2-4.5-4.5S516.5,158,519.1,158z M379.1,18.1c2.5,0,4.5,2,4.5,4.5s-2,4.5-4.5,4.5s-4.5-2-4.5-4.5S376.6,18.1,379.1,18.1z
			 M302.4,18.1c2.5,0,4.5,2,4.5,4.5s-2,4.5-4.5,4.5c-1.3,0-2.4-0.5-3.2-1.4s-1.4-1.9-1.4-3.2C297.9,20,299.9,18.1,302.4,18.1z
			 M162.5,31.6c-2.5,0-4.5-2-4.5-4.5s2-4.5,4.5-4.5s4.5,2,4.5,4.5S165,31.6,162.5,31.6z M22.6,167c-2.5,0-4.5-2-4.5-4.5
			s2-4.5,4.5-4.5s4.5,2,4.5,4.5S25.1,167,22.6,167z M25.7,242.4c-0.8,0.8-1.9,1.4-3.2,1.4c-2.5,0-4.5-2-4.5-4.5s2-4.5,4.5-4.5
			s4.5,2,4.5,4.5C27.1,240.5,26.5,241.6,25.7,242.4L25.7,242.4z M27.1,383.7c-2.5,0-4.5-2-4.5-4.5s2-4.5,4.5-4.5s4.5,2,4.5,4.5
			S29.6,383.7,27.1,383.7z M162.5,519.1c-2.5,0-4.5-2-4.5-4.5s2-4.5,4.5-4.5s4.5,2,4.5,4.5S165,519.1,162.5,519.1z M299.2,515.9
			c0.8-0.8,1.9-1.3,3.2-1.3c2.5,0,4.5,2,4.5,4.5s-2,4.5-4.5,4.5s-4.5-2-4.5-4.5C297.9,517.8,298.4,516.7,299.2,515.9L299.2,515.9z
			 M379.1,514.5c2.5,0,4.5,2,4.5,4.5s-2,4.5-4.5,4.5s-4.5-2-4.5-4.5S376.6,514.5,379.1,514.5z M397.2,362.6c0,2.4-0.9,4.7-2.6,6.4
			L369,394.6c-1.7,1.6-4.1,2.6-6.4,2.6H179c-2.4,0-4.7-1-6.4-2.6L147,369c-1.7-1.7-2.6-4-2.6-6.4V179c0-2.4,0.9-4.7,2.6-6.4
			l25.6-25.6c1.7-1.6,4.1-2.6,6.4-2.6h183.6c2.4,0,4.7,1,6.4,2.6l25.5,25.6c1.7,1.7,2.6,4,2.6,6.4V362.6z M514.5,374.6
			c2.5,0,4.5,2,4.5,4.5s-2,4.5-4.5,4.5s-4.5-2-4.5-4.5S512,374.6,514.5,374.6z"/>
		<path class="st0" d="M279.6,270.7c0-0.1,0-0.1-0.1-0.2l-21-57c-1.3-3.6-4.7-5.9-8.5-5.9s-7.2,2.4-8.5,5.9l-21,57
			c0,0.1-0.1,0.1-0.1,0.2l-12.2,33.1c-1.7,4.7,0.7,9.9,5.3,11.6c4.7,1.8,9.9-0.7,11.6-5.3l9.9-26.9h29.8l9.9,26.9
			c1.4,3.6,4.8,5.9,8.5,5.9c1,0,2.1-0.2,3.1-0.6c4.7-1.7,7.1-6.9,5.3-11.6L279.6,270.7L279.6,270.7z M241.7,265.1l8.2-22.4l8.2,22.4
			H241.7L241.7,265.1z"/>
		<path class="st0" d="M316,207.6c-5,0-9,4-9,9v90.3c0,5,4,9,9,9s9-4,9-9v-90.3C325,211.7,320.9,207.6,316,207.6z"/>
		<circle class="st0" cx="179.4" cy="176" r="13.5"/>
		<circle class="st0" cx="362.3" cy="176" r="13.5"/>
		<circle class="st0" cx="179.4" cy="365.6" r="13.5"/>
		<circle class="st0" cx="362.3" cy="365.6" r="13.5"/>
	</g>
</g>
</svg>
