<?xml version="1.0" encoding="utf-8"?>
<!-- Generator: Adobe Illustrator 28.2.0, SVG Export Plug-In . SVG Version: 6.00 Build 0)  -->
<svg version="1.1" id="Camada_2_00000158015065253036843790000009132090913764889786_"
	 xmlns="http://www.w3.org/2000/svg" xmlns:xlink="http://www.w3.org/1999/xlink" x="0px" y="0px" viewBox="0 0 116.4 110.6"
	 style="enable-background:new 0 0 116.4 110.6;" xml:space="preserve">
<style type="text/css">
	.st0{fill:#848688;}
</style>
<g id="Camada_1-2">
	<g>
		<path class="st0" d="M29.6,3.2h5.3c0.9,0,1.6-0.7,1.6-1.6S35.8,0,34.9,0h-5.3C28.7,0,28,0.7,28,1.6S28.7,3.2,29.6,3.2z"/>
		<path class="st0" d="M1.6,30.9c0.9,0,1.6-0.7,1.6-1.6V24c0-0.9-0.7-1.6-1.6-1.6S0,23.1,0,24v5.3C0,30.2,0.7,30.9,1.6,30.9z"/>
		<path class="st0" d="M1.6,20.3c0.9,0,1.6-0.7,1.6-1.6v-5.3c0-0.9-0.7-1.6-1.6-1.6S0,12.6,0,13.4v5.3C0,19.6,0.7,20.3,1.6,20.3z"/>
		<path class="st0" d="M40.2,3.2h5.3c0.9,0,1.6-0.7,1.6-1.6S46.3,0,45.4,0h-5.3c-0.9,0-1.6,0.7-1.6,1.6S39.3,3.2,40.2,3.2z"/>
		<path class="st0" d="M1.6,9.8L1.6,9.8c0.9,0,1.6-0.7,1.6-1.6c0-1.4,0.6-2.6,1.6-3.6C5.4,4,5.4,3,4.8,2.3s-1.6-0.7-2.3,0
			C0.9,3.8,0,5.9,0,8.1C0,9,0.7,9.7,1.6,9.8z"/>
		<path class="st0" d="M69.2,8.3v2.6c0,0.9,0.7,1.6,1.6,1.6s1.6-0.7,1.6-1.6V8.3c0-1.1-0.2-2.2-0.7-3.3c-0.3-0.8-1.3-1.2-2.1-0.8
			c-0.8,0.3-1.2,1.3-0.8,2.1C69,6.9,69.2,7.6,69.2,8.3L69.2,8.3z"/>
		<path class="st0" d="M70.8,14.5c-0.9,0-1.6,0.7-1.6,1.6v5.3c0,0.9,0.7,1.6,1.6,1.6s1.6-0.7,1.6-1.6v-5.3
			C72.4,15.2,71.6,14.5,70.8,14.5z"/>
		<path class="st0" d="M50.7,3.2H56c0.9,0,1.6-0.7,1.6-1.6S56.9,0,56,0h-5.3c-0.9,0-1.6,0.7-1.6,1.6S49.9,3.2,50.7,3.2z"/>
		<path class="st0" d="M61.3,3.2h2.8c0.6,0,1.2,0.1,1.8,0.3c0.2,0.1,0.4,0.1,0.6,0.1c0.6,0,1.2-0.4,1.5-1c0.3-0.8-0.1-1.8-0.9-2.1
			c-0.9-0.4-2-0.6-3-0.6h-2.8c-0.9,0-1.6,0.7-1.6,1.6S60.4,3.2,61.3,3.2L61.3,3.2z"/>
		<path class="st0" d="M6.9,67.8c-1.3-0.4-2.4-1.2-3.1-2.4c-0.4-0.8-1.4-1.1-2.2-0.6s-1,1.4-0.6,2.2c1.1,1.9,2.9,3.4,5,3.9
			c0.1,0,0.3,0.1,0.4,0.1c0.7,0,1.3-0.5,1.5-1.2C8.3,68.9,7.8,68,6.9,67.8L6.9,67.8z"/>
		<path class="st0" d="M15.4,1.6c0-0.9-0.7-1.6-1.6-1.6H8.5C7.6,0,6.9,0.7,6.9,1.6s0.7,1.6,1.6,1.6h5.3C14.7,3.2,15.4,2.5,15.4,1.6z
			"/>
		<path class="st0" d="M17,67.9h-5.3c-0.9,0-1.6,0.7-1.6,1.6s0.7,1.6,1.6,1.6H17c0.9,0,1.6-0.7,1.6-1.6S17.9,67.9,17,67.9z"/>
		<path class="st0" d="M25.9,1.6c0-0.9-0.7-1.6-1.6-1.6H19c-0.9,0-1.6,0.7-1.6,1.6s0.7,1.6,1.6,1.6h5.3C25.2,3.2,25.9,2.5,25.9,1.6z
			"/>
		<path class="st0" d="M1.6,52c0.9,0,1.6-0.7,1.6-1.6v-5.3c0-0.9-0.7-1.6-1.6-1.6S0,44.3,0,45.1v5.3C0,51.3,0.7,52,1.6,52z"/>
		<path class="st0" d="M1.6,41.5c0.9,0,1.6-0.7,1.6-1.6v-5.3c0-0.9-0.7-1.6-1.6-1.6S0,33.7,0,34.6v5.3C0,40.7,0.7,41.5,1.6,41.5z"/>
		<path class="st0" d="M3.2,61v-5.3c0-0.9-0.7-1.6-1.6-1.6S0,54.8,0,55.7V61c0,0.9,0.7,1.6,1.6,1.6S3.2,61.9,3.2,61z"/>
		<path class="st0" d="M116.4,82.9c-0.1-0.6-0.5-1.1-1.1-1.3l-14.7-5.1c0.1-0.2,0.1-0.4,0.1-0.6V36.8c0-4.5-3.7-8.2-8.2-8.2H72.4
			c0,0,0-0.1,0-0.1v-1.7c0-0.9-0.7-1.6-1.6-1.6s-1.6,0.7-1.6,1.6v1.7c0,0,0,0.1,0,0.1H36.6c-4.5,0-8.2,3.7-8.2,8.2v31.4
			c-0.2-0.1-0.5-0.2-0.8-0.2h-5.3c-0.9,0-1.6,0.7-1.6,1.6s0.7,1.6,1.6,1.6h5.3c0.3,0,0.5-0.1,0.8-0.2v20.4c0,4.6,3.7,8.2,8.2,8.2
			h38.7c0.9,0,1.6-0.7,1.6-1.6s-0.7-1.6-1.6-1.6H36.6c-2.8,0-5-2.3-5-5V36.8c0-2.8,2.3-5,5-5h55.9c2.8,0,5,2.3,5,5v38.7l-20.8-7.2
			c-0.6-0.2-1.2-0.1-1.6,0.4c-0.4,0.4-0.6,1.1-0.4,1.6l12.7,39.2c0.2,0.6,0.7,1,1.3,1.1c0.1,0,0.2,0,0.2,0c0.5,0,1-0.2,1.3-0.7
			l7.4-10.2l9.7,9.7c0.6,0.6,1.6,0.6,2.3,0l5.7-5.7c0.6-0.6,0.6-1.6,0-2.3l-9.9-9.9l10.3-7.2C116.2,84.1,116.5,83.5,116.4,82.9
			L116.4,82.9z M102,90.1c-0.4,0.3-0.6,0.7-0.7,1.2c0,0.5,0.1,0.9,0.5,1.3l10.1,10.1l-3.4,3.4l-9.9-9.9c-0.3-0.3-0.7-0.5-1.1-0.5
			c0,0-0.1,0-0.1,0c-0.5,0-0.9,0.3-1.2,0.7l-6.7,9.2L78.7,72.4l32.6,11.2L102,90.1L102,90.1z"/>
		<path class="st0" d="M42.9,37.9c-3,0-5.5,2.5-5.5,5.5v15.3c0,3,2.5,5.5,5.5,5.5h17.7c3,0,5.5-2.5,5.5-5.5V43.4
			c0-3-2.5-5.5-5.5-5.5C60.6,37.9,42.9,37.9,42.9,37.9z M62.8,43.4v15.3c0,1.2-1,2.3-2.3,2.3H42.9c-1.2,0-2.3-1-2.3-2.3V43.4
			c0-1.3,1-2.3,2.3-2.3h17.7C61.8,41.1,62.8,42.1,62.8,43.4z"/>
	</g>
</g>
</svg>
