<?xml version="1.0" encoding="utf-8"?>
<!-- Generator: Adobe Illustrator 28.2.0, SVG Export Plug-In . SVG Version: 6.00 Build 0)  -->
<svg version="1.1" id="Camada_2_00000150816251375725190060000011850391100501005440_"
	 xmlns="http://www.w3.org/2000/svg" xmlns:xlink="http://www.w3.org/1999/xlink" x="0px" y="0px" viewBox="0 0 76.3 104.5"
	 style="enable-background:new 0 0 76.3 104.5;" xml:space="preserve">
<style type="text/css">
	.st0{fill:#848688;}
</style>
<g id="Camada_1-2">
	<g>
		<path class="st0" d="M39.5,22.7c0.4,0,0.8-0.2,1-0.4s0.4-0.7,0.4-1s-0.2-0.8-0.4-1c-0.6-0.5-1.5-0.5-2.1,0c-0.3,0.3-0.4,0.7-0.4,1
			s0.2,0.8,0.4,1C38.7,22.6,39.1,22.7,39.5,22.7z"/>
		<path class="st0" d="M41.1,76.3c0.8,0,1.5-0.7,1.5-1.5s-0.7-1.5-1.5-1.5s-1.5,0.7-1.5,1.5S40.3,76.3,41.1,76.3L41.1,76.3z"/>
		<path class="st0" d="M76.3,31.8c0-1.7-0.7-3.3-1.9-4.6c-0.6-0.6-1.3-1-2-1.4l-0.8-0.3l2.8-2.8c1.2-1.2,1.9-2.8,1.9-4.6
			s-0.7-3.3-1.9-4.6c-1.3-1.3-3-1.9-4.8-1.9l-0.6,0V6.3C69,2.8,66.2,0,62.7,0H19.5c-3.5,0-6.3,2.8-6.3,6.3v30.4l-1-0.9
			c-1.8-1.8-4.1-2.9-6.6-3.4c-1.4-0.2-2.8,0.1-3.9,1C0.6,34.4,0,35.7,0,37.1v57.7c0,0.8,0.7,1.5,1.5,1.5S3,95.6,3,94.8V37.1
			c0-0.5,0.2-1,0.6-1.4c0.2-0.2,0.6-0.4,1.2-0.4c0.1,0,0.2,0,0.3,0c4.7,0.8,8.1,4.9,8.1,9.7v24.3c0,0.4,0.1,0.8,0.4,1.1
			c4.7,4.7,7.3,11,7.3,17.6v1.8c0,0.8,0.7,1.5,1.5,1.5s1.5-0.7,1.5-1.5V88c0-1.7-0.1-3.4-0.5-5.1l-0.1-0.7h35.9l-0.1,0.6
			c-0.7,7-4.5,13.1-10.4,16.8l-3.4,2.1c-0.3,0.2-0.6,0.5-0.7,0.9c-0.1,0.4,0,0.8,0.2,1.1c0.3,0.4,0.8,0.7,1.3,0.7
			c0.3,0,0.5-0.1,0.8-0.2l3.4-2.1c3.6-2.3,6.7-5.4,8.8-9.2c1.7-3.1,2.8-6.7,3.1-10.2l0-0.5h0.5c3.5,0,6.3-2.8,6.3-6.3v-6.8l5.4-5.4
			c1.2-1.2,1.9-2.8,1.9-4.6s-0.7-3.3-1.9-4.6c-0.6-0.6-1.3-1-2-1.4l-0.8-0.3l2.8-2.8c1.2-1.2,1.9-2.8,1.9-4.6s-0.7-3.3-1.9-4.6
			c-0.6-0.6-1.3-1-2-1.4l-0.8-0.3l2.8-2.8C75.7,35.2,76.3,33.6,76.3,31.8L76.3,31.8z M66.1,75.9c0,1.8-1.5,3.3-3.3,3.3H22.5
			l-0.1-0.4c-0.9-2.6-2.2-5.1-3.8-7.3l-0.7-0.9h48.1L66.1,75.9L66.1,75.9z M66.1,11.6H16.2V6.3c0-1.8,1.5-3.3,3.4-3.3h43.2
			c1.8,0,3.3,1.5,3.3,3.3L66.1,11.6L66.1,11.6z M32.7,21.2c0-0.8-0.7-1.5-1.5-1.5h-15v-5.2h48.2l-4.2,4.2c-1.2,1.2-1.9,2.8-1.9,4.6
			s0.7,3.3,1.9,4.6c0.6,0.6,1.3,1,2,1.4l0.8,0.3l-2.8,2.8c-1.2,1.2-1.9,2.8-1.9,4.6s0.7,3.3,1.9,4.6c0.6,0.6,1.3,1,2,1.4l0.8,0.3
			L60.2,46c-1.2,1.2-1.9,2.8-1.9,4.6s0.7,3.3,1.9,4.6c0.6,0.6,1.3,1,2,1.4l0.8,0.3l-2.8,2.8c-1.2,1.2-1.9,2.8-1.9,4.6
			c0,0.9,0.2,1.8,0.6,2.7l0.4,0.8h-43v-45h15C32,22.7,32.7,22,32.7,21.2L32.7,21.2z M72.3,20.7l-5.1,5.1c-0.7,0.7-1.5,1-2.5,1
			s-1.8-0.4-2.5-1s-1-1.5-1-2.5s0.4-1.8,1-2.5l5.1-5.1c0.7-0.7,1.5-1,2.5-1s1.8,0.4,2.5,1c0.7,0.7,1,1.5,1,2.5S73,20,72.3,20.7z
			 M62.3,66.7c-0.7-0.7-1-1.5-1-2.5s0.4-1.8,1-2.5l5.1-5.1c0.7-0.7,1.5-1,2.5-1s1.8,0.4,2.5,1c0.7,0.7,1,1.5,1,2.5s-0.4,1.8-1,2.5
			l-5.1,5.1c-0.6,0.7-1.5,1-2.4,1h-0.1C63.8,67.7,63,67.4,62.3,66.7L62.3,66.7z M72.3,47.9l-5.1,5.1c-0.7,0.7-1.5,1-2.5,1
			s-1.8-0.4-2.5-1s-1-1.5-1-2.5s0.4-1.8,1-2.5l5.1-5.1c0.7-0.7,1.5-1,2.5-1s1.8,0.4,2.5,1c0.7,0.7,1,1.5,1,2.5S73,47.3,72.3,47.9z
			 M72.3,34.3l-5.1,5.1c-0.7,0.7-1.5,1-2.5,1s-1.8-0.4-2.5-1c-0.7-0.7-1-1.5-1-2.5s0.4-1.8,1-2.5l5.1-5.1c0.7-0.7,1.5-1,2.5-1
			s1.8,0.4,2.5,1c0.7,0.7,1,1.5,1,2.5C73.4,32.8,73,33.6,72.3,34.3z"/>
		<path class="st0" d="M41.4,53.8c7.3,0,13.2-5.9,13.2-13.2s-5.9-13.2-13.2-13.2s-13.2,5.9-13.2,13.2S34.1,53.8,41.4,53.8z
			 M31.2,40.5c0-5.7,4.6-10.3,10.3-10.3s10.3,4.6,10.3,10.3s-4.6,10.3-10.3,10.3S31.2,46.2,31.2,40.5z"/>
		<path class="st0" d="M39.2,44.4c0.3,0.3,0.7,0.4,1,0.4s0.8-0.2,1-0.4l5.6-5.6c0.6-0.6,0.6-1.5,0-2.1s-1.5-0.6-2.1,0l-4.5,4.5
			l-1.7-1.7c-0.6-0.6-1.5-0.6-2.1,0c-0.6,0.6-0.6,1.5,0,2.1L39.2,44.4L39.2,44.4z"/>
		<path class="st0" d="M0.4,102c-0.3,0.3-0.4,0.7-0.4,1.1s0.2,0.8,0.4,1.1c0.3,0.3,0.7,0.4,1,0.4s0.8-0.2,1-0.4
			c0.3-0.3,0.4-0.7,0.4-1.1s-0.2-0.8-0.4-1.1C2,101.5,1,101.5,0.4,102z"/>
	</g>
</g>
</svg>
