<svg xmlns="http://www.w3.org/2000/svg" xmlns:xlink="http://www.w3.org/1999/xlink" width="80" height="80" viewBox="0 0 80 80">
  <defs>
    <clipPath id="clip-path">
      <rect id="Ret칙ngulo_69" data-name="Ret칙ngulo 69" width="80" height="80" transform="translate(457 593)" fill="#fff" stroke="#707070" stroke-width="1"/>
    </clipPath>
  </defs>
  <g id="Grupo_de_m치scara_36" data-name="Grupo de m치scara 36" transform="translate(-457 -593)" clip-path="url(#clip-path)">
    <g id="Layer_1" data-name="Layer 1" transform="translate(457 593.043)">
      <path id="Caminho_235" data-name="Caminho 235" d="M26.411,44.1q0,5.264,2.124,7.757a6.7,6.7,0,0,0,5.279,2.49,8.8,8.8,0,0,0,4.416-1.16,10.909,10.909,0,0,0,3.1-2.618A21.25,21.25,0,0,0,45.124,43.2a29.018,29.018,0,0,0,1.584-9.045c0-3.116-.723-5.52-2.167-7.19a6.973,6.973,0,0,0-5.478-2.505,9.566,9.566,0,0,0-6.582,2.759,16.987,16.987,0,0,0-4.544,7.855,31.928,31.928,0,0,0-1.529,9.03M71.153,61.147H80A30.059,30.059,0,0,1,67.263,74.41q-9.809,5.5-23.964,5.505c-9.426,0-17-1.544-23.637-4.629A31.212,31.212,0,0,1,4.855,61.611,40.886,40.886,0,0,1,0,41.926,44.578,44.578,0,0,1,5.52,20.171,36.3,36.3,0,0,1,20.607,5.053,46.229,46.229,0,0,1,42.505,0,41.014,41.014,0,0,1,61.077,4.062,28.772,28.772,0,0,1,73.5,15.624a32.356,32.356,0,0,1,4.287,16.363,30.773,30.773,0,0,1-6.512,19.136Q63.126,61.907,50.36,61.907a9.226,9.226,0,0,1-5.182-1.19,5.854,5.854,0,0,1-2.322-3.509,15.81,15.81,0,0,1-11.266,4.7,15.173,15.173,0,0,1-11.422-4.742q-4.545-4.756-4.544-12.624a30.981,30.981,0,0,1,5.462-17.778q6.646-9.786,17-9.78c4.91,0,8.551,1.883,10.885,5.648L50.006,18h10.94L54.675,47.7a25.047,25.047,0,0,0-.58,3.653,2.17,2.17,0,0,0,.482,1.544,1.454,1.454,0,0,0,1.132.525c1.33,0,3.042-.806,5.151-2.408A22.966,22.966,0,0,0,67.7,42.56a24.619,24.619,0,0,0,2.618-11,22.359,22.359,0,0,0-7.376-17.055Q55.551,7.65,42.331,7.641q-11.233,0-19.051,4.587A29.106,29.106,0,0,0,11.52,25.163,39.858,39.858,0,0,0,7.556,42.518a29.445,29.445,0,0,0,4.416,15.951,25.726,25.726,0,0,0,12.4,10.5,47.463,47.463,0,0,0,18.258,3.3,45.789,45.789,0,0,0,17.028-2.789,26.41,26.41,0,0,0,11.492-8.337Z" fill="#021c3e"/>
    </g>
  </g>
</svg>
