<?xml version="1.0" encoding="utf-8"?>
<!-- Generator: Adobe Illustrator 28.2.0, SVG Export Plug-In . SVG Version: 6.00 Build 0)  -->
<svg version="1.1" id="Camada_1" xmlns="http://www.w3.org/2000/svg" xmlns:xlink="http://www.w3.org/1999/xlink" x="0px" y="0px"
	 viewBox="0 0 36 24" style="enable-background:new 0 0 36 24;" xml:space="preserve">
<g>
	<path d="M2.2,4.5h31.5c1.2,0,2.2-1,2.2-2.2S35,0,33.8,0H2.2C1,0,0,1,0,2.3S1,4.5,2.2,4.5z"/>
	<path d="M33.8,9.8H2.2C1,9.8,0,10.8,0,12c0,1.2,1,2.2,2.2,2.2h31.5c1.2,0,2.2-1,2.2-2.2C36,10.8,35,9.8,33.8,9.8z"/>
	<path d="M33.8,19.5H2.2c-1.2,0-2.2,1-2.2,2.2S1,24,2.2,24h31.5c1.2,0,2.2-1,2.2-2.2S35,19.5,33.8,19.5z"/>
</g>
</svg>
