<svg xmlns="http://www.w3.org/2000/svg" xmlns:xlink="http://www.w3.org/1999/xlink" width="48" height="48" viewBox="0 0 48 48">
  <defs>
    <clipPath id="clip-path">
      <rect id="Retângulo_63" data-name="Retângulo 63" width="48" height="48" transform="translate(308 72)" fill="#fff" stroke="#707070" stroke-width="1"/>
    </clipPath>
  </defs>
  <g id="Grupo_de_máscara_31" data-name="Grupo de máscara 31" transform="translate(-308 -72)" clip-path="url(#clip-path)">
    <g id="Ñëîé_1" data-name="Ñëîé 1" transform="translate(320.794 72)">
      <g id="Grupo_136" data-name="Grupo 136">
        <path id="Caminho_197" data-name="Caminho 197" d="M16.579,15.693a5.373,5.373,0,1,0-1.574,3.8A5.336,5.336,0,0,0,16.579,15.693Zm-1.618,0a3.755,3.755,0,1,1-3.755-3.755A3.759,3.759,0,0,1,14.961,15.693Z" fill="#c2c2c2"/>
        <path id="Caminho_198" data-name="Caminho 198" d="M22.256,28.924,18.57,23.9c.2-.67.4-1.359.569-2.049a35.772,35.772,0,0,0,1.15-8.32,14.108,14.108,0,0,0-1.373-6.155c-.034-.071-.068-.14-.1-.205L18.8,7.138A15.141,15.141,0,0,0,15.913,3.2,16.293,16.293,0,0,0,11.535.07a.81.81,0,0,0-.657,0A16.294,16.294,0,0,0,6.5,3.2a15.123,15.123,0,0,0-2.884,3.93L3.6,7.167c-.035.07-.07.14-.1.21a14.115,14.115,0,0,0-1.372,6.155,35.775,35.775,0,0,0,1.15,8.32c.173.691.364,1.381.569,2.049L.157,28.924a.809.809,0,0,0-.139.65l1.937,8.944a.809.809,0,0,0,1.527.163l2.394-5.267h.333v.416a.81.81,0,0,0,.809.809H15.4a.81.81,0,0,0,.809-.809v-.416h.333l2.393,5.267a.811.811,0,0,0,.736.474.772.772,0,0,0,.086,0,.808.808,0,0,0,.7-.633l1.937-8.944a.809.809,0,0,0-.139-.65ZM4.472,25.779a25.586,25.586,0,0,0,1.737,3.839V31.8l-.854,0a.811.811,0,0,0-.737.474l-1.6,3.52-1.343-6.2,2.8-3.808Zm9.1,3.623a.81.81,0,0,0,.809.809h.207v2.81H7.827v-2.81h3.219a.809.809,0,1,0,0-1.618H7.489a26.64,26.64,0,0,1-1.966-4.729.833.833,0,0,0-.035-.111A37.013,37.013,0,0,1,3.742,13.533a12.553,12.553,0,0,1,1.09-5.208h6.159a.809.809,0,1,0,0-1.618H5.716A14.055,14.055,0,0,1,7.61,4.383a15.52,15.52,0,0,1,3.6-2.67,15.45,15.45,0,0,1,3.566,2.64A14.138,14.138,0,0,1,16.7,6.707h-1.04a.809.809,0,1,0,0,1.618H17.58a12.553,12.553,0,0,1,1.09,5.208,37.009,37.009,0,0,1-1.746,10.219.866.866,0,0,0-.035.112,26.646,26.646,0,0,1-1.966,4.729h-.545a.81.81,0,0,0-.809.809Zm7.166.185-1.343,6.2-1.6-3.52a.812.812,0,0,0-.738-.474l-.852,0V29.619a25.64,25.64,0,0,0,1.737-3.839l2.8,3.808Z" fill="#c2c2c2"/>
        <path id="Caminho_199" data-name="Caminho 199" d="M15.374,36.507a.81.81,0,0,0-.809.809,8.249,8.249,0,0,1-1.9,4.768,14.17,14.17,0,0,1-1.459,1.62c-1.117-1.061-3.358-3.545-3.358-6.388a.809.809,0,0,0-1.618,0,8.066,8.066,0,0,0,.719,3.233,12.24,12.24,0,0,0,1.533,2.545A14.8,14.8,0,0,0,10.7,45.419a.809.809,0,0,0,1.013,0,14.856,14.856,0,0,0,2.218-2.325,12.217,12.217,0,0,0,1.533-2.545,8.074,8.074,0,0,0,.719-3.233A.81.81,0,0,0,15.374,36.507Z" fill="#c2c2c2"/>
        <path id="Caminho_200" data-name="Caminho 200" d="M11.206,40.556a.805.805,0,0,0,.622-.292,12.115,12.115,0,0,0,1.5-2.469.809.809,0,0,0-.4-1.073.811.811,0,0,0-1.073.4,11.444,11.444,0,0,1-.65,1.212,11.346,11.346,0,0,1-.65-1.212.809.809,0,1,0-1.47.677,12.144,12.144,0,0,0,1.5,2.469.808.808,0,0,0,.622.292Z" fill="#c2c2c2"/>
        <path id="Caminho_201" data-name="Caminho 201" d="M2.815,39.888a.81.81,0,0,0-.809.809v3.249a.809.809,0,1,0,1.618,0V40.7a.81.81,0,0,0-.809-.809Z" fill="#c2c2c2"/>
        <path id="Caminho_202" data-name="Caminho 202" d="M2.815,45.944a.81.81,0,0,0-.809.809v.438a.809.809,0,1,0,1.618,0v-.438a.81.81,0,0,0-.809-.809Z" fill="#c2c2c2"/>
        <path id="Caminho_203" data-name="Caminho 203" d="M19.6,39.888a.81.81,0,0,0-.809.809v3.249a.809.809,0,1,0,1.618,0V40.7A.81.81,0,0,0,19.6,39.888Z" fill="#c2c2c2"/>
        <path id="Caminho_204" data-name="Caminho 204" d="M19.6,45.944a.81.81,0,0,0-.809.809v.438a.809.809,0,1,0,1.618,0v-.438A.81.81,0,0,0,19.6,45.944Z" fill="#c2c2c2"/>
      </g>
    </g>
  </g>
</svg>
