<svg xmlns="http://www.w3.org/2000/svg" xmlns:xlink="http://www.w3.org/1999/xlink" width="48" height="48" viewBox="0 0 48 48">
  <defs>
    <clipPath id="clip-path">
      <rect id="Retângulo_64" data-name="Retângulo 64" width="48" height="48" transform="translate(308 89)" fill="#fff" stroke="#707070" stroke-width="1"/>
    </clipPath>
  </defs>
  <g id="Grupo_de_máscara_29" data-name="Grupo de máscara 29" transform="translate(-308 -89)" clip-path="url(#clip-path)">
    <g id="Ñëîé_1" data-name="Ñëîé 1" transform="translate(309.806 89)">
      <g id="Grupo_134" data-name="Grupo 134">
        <path id="Caminho_158" data-name="Caminho 158" d="M39.851,15.754a.845.845,0,0,0,.32-.062l1.328-.533a.86.86,0,1,0-.64-1.6l-1.328.533a.86.86,0,0,0,.321,1.658Z" fill="#c2c2c2"/>
        <path id="Caminho_159" data-name="Caminho 159" d="M42.987,14.495a.852.852,0,0,0,.32-.062l.541-.217a.861.861,0,0,0,.477-1.118h0a.858.858,0,0,0-1.118-.477l-.541.217a.86.86,0,0,0,.321,1.658Z" fill="#c2c2c2"/>
        <path id="Caminho_160" data-name="Caminho 160" d="M29.349,5.295h0a.859.859,0,0,0,1.128-.453l.4-.941A.86.86,0,0,0,29.3,3.225l-.4.941a.86.86,0,0,0,.453,1.128Z" fill="#c2c2c2"/>
        <path id="Caminho_161" data-name="Caminho 161" d="M30.685,2.166a.848.848,0,0,0,.338.069.858.858,0,0,0,.791-.522l.22-.516A.86.86,0,0,0,30.451.523l-.22.516a.861.861,0,0,0,.453,1.128Z" fill="#c2c2c2"/>
        <path id="Caminho_162" data-name="Caminho 162" d="M40.867,29h0l-.837-.357a.86.86,0,1,0-.676,1.581l.837.358a.85.85,0,0,0,.338.069A.86.86,0,0,0,40.867,29Z" fill="#c2c2c2"/>
        <path id="Caminho_163" data-name="Caminho 163" d="M43.674,30.194l-.713-.305a.86.86,0,0,0-.675,1.581l.713.3a.86.86,0,1,0,.676-1.581Z" fill="#c2c2c2"/>
        <path id="Caminho_164" data-name="Caminho 164" d="M33.8,11.256A.853.853,0,0,0,34.408,11l2.415-2.415a.86.86,0,0,0-1.216-1.216L33.192,9.788a.86.86,0,0,0,.608,1.468Z" fill="#c2c2c2"/>
        <path id="Caminho_165" data-name="Caminho 165" d="M22.227,6.5a.9.9,0,0,0,.9-.9V2.187a.9.9,0,1,0-1.8,0V5.6A.9.9,0,0,0,22.227,6.5Z" fill="#c2c2c2"/>
        <path id="Caminho_166" data-name="Caminho 166" d="M42.869,21.969a.861.861,0,0,0-.86-.859H38.594a.86.86,0,1,0,0,1.719h3.414A.861.861,0,0,0,42.869,21.969Z" fill="#c2c2c2"/>
        <path id="Caminho_167" data-name="Caminho 167" d="M2.888,15.159l1.328.533a.86.86,0,1,0,.641-1.6l-1.328-.533A.859.859,0,0,0,2.419,14.7a.851.851,0,0,0,.47.46Z" fill="#c2c2c2"/>
        <path id="Caminho_168" data-name="Caminho 168" d="M.54,14.216l.541.217h0a.86.86,0,0,0,.641-1.6L1.18,12.62a.86.86,0,0,0-.64,1.6Z" fill="#c2c2c2"/>
        <path id="Caminho_169" data-name="Caminho 169" d="M13.5,3.243a.856.856,0,0,0,.007.658l.4.941a.86.86,0,0,0,1.581-.675l-.4-.941a.86.86,0,0,0-1.589.017Z" fill="#c2c2c2"/>
        <path id="Caminho_170" data-name="Caminho 170" d="M12.575,1.713a.86.86,0,1,0,1.581-.675l-.22-.516a.86.86,0,0,0-1.582.675l.22.516Z" fill="#c2c2c2"/>
        <path id="Caminho_171" data-name="Caminho 171" d="M4.7,28.569a.853.853,0,0,0-.338.069L3.522,29A.86.86,0,1,0,4.2,30.576l.837-.358A.86.86,0,0,0,4.7,28.568Z" fill="#c2c2c2"/>
        <path id="Caminho_172" data-name="Caminho 172" d="M1.765,29.821a.848.848,0,0,0-.337.069l-.713.3a.86.86,0,1,0,.675,1.581l.713-.3a.859.859,0,0,0-.338-1.65Z" fill="#c2c2c2"/>
        <path id="Caminho_173" data-name="Caminho 173" d="M10.588,32.682a.853.853,0,0,0-.608.252L7.566,35.349a.86.86,0,0,0,1.216,1.216L11.2,34.15a.86.86,0,0,0-.608-1.468Z" fill="#c2c2c2"/>
        <path id="Caminho_174" data-name="Caminho 174" d="M34.972,32.934h0a.86.86,0,1,0-1.216,1.216l2.415,2.415a.86.86,0,0,0,1.215-1.216l-2.415-2.415Z" fill="#c2c2c2"/>
        <path id="Caminho_175" data-name="Caminho 175" d="M9.98,11h0A.86.86,0,1,0,11.2,9.788L8.781,7.374A.86.86,0,1,0,7.565,8.589L9.98,11Z" fill="#c2c2c2"/>
        <path id="Caminho_176" data-name="Caminho 176" d="M5.794,21.109H2.38a.86.86,0,1,0,0,1.719H5.794a.86.86,0,1,0,0-1.719Z" fill="#c2c2c2"/>
        <path id="Caminho_177" data-name="Caminho 177" d="M35.03,16.4A13.9,13.9,0,1,0,12.2,31.439l0,0,.017.017,0,0a13.533,13.533,0,0,1,2.825,3.581,3.339,3.339,0,0,1,.387,1.145h0a2.291,2.291,0,0,0,.811,1.743v.737c0,.013,0,.026,0,.039v4.926a2.044,2.044,0,0,0,.808,1.638c.053.04,1.169.867,3.317,2.457l.133.1a.868.868,0,0,0,.512.169H23.41a.865.865,0,0,0,.4-.1.914.914,0,0,0,.123-.076l.133-.1c2.149-1.59,3.265-2.417,3.317-2.457a2.044,2.044,0,0,0,.808-1.638V37.936a2.262,2.262,0,0,0,.81-1.67,5.2,5.2,0,0,1,.482-1.321,12.333,12.333,0,0,1,2.721-3.471l.005,0,.025-.024.007-.007A13.913,13.913,0,0,0,35.029,16.4ZM26.475,39.225l-.883.017a.86.86,0,0,0,0,1.72l.883-.017v.675H25.7a.86.86,0,1,0,0,1.719h.779v.291a.345.345,0,0,1-.344.344H24.743a.859.859,0,0,0-.552,1.519l-1.054.78H21.322l-.776-.567,2.091,0a.86.86,0,0,0,0-1.72l-4.318,0a.345.345,0,0,1-.344-.344v-.289h5.207a.86.86,0,1,0,0-1.719l-5.207,0v-.673l5.26,0a.86.86,0,0,0,0-1.72l-5.26,0v-.544c0-.008,0-.015,0-.023s0-.021,0-.031v-.16h8.5v.751Zm4.547-9A13.958,13.958,0,0,0,27.9,34.273a6.157,6.157,0,0,0-.611,1.823.145.145,0,0,0,0,.017l0,.059v.022a.562.562,0,0,1-.561.562h-9a.562.562,0,0,1-.561-.555,4.293,4.293,0,0,0-.494-1.767,15.011,15.011,0,0,0-3.231-4.193,12.179,12.179,0,1,1,17.586-.011Z" fill="#c2c2c2"/>
        <path id="Caminho_178" data-name="Caminho 178" d="M21.761,13.115a7.819,7.819,0,0,0-7.82,7.82.893.893,0,0,0,1.786,0A6.04,6.04,0,0,1,21.76,14.9a.893.893,0,0,0,0-1.786Z" fill="#c2c2c2"/>
      </g>
    </g>
  </g>
</svg>
