<svg xmlns="http://www.w3.org/2000/svg" xmlns:xlink="http://www.w3.org/1999/xlink" width="48" height="48" viewBox="0 0 48 48">
  <defs>
    <clipPath id="clip-path">
      <rect id="Retângulo_65" data-name="Retângulo 65" width="48" height="48" transform="translate(308 92)" fill="#fff" stroke="#707070" stroke-width="1"/>
    </clipPath>
  </defs>
  <g id="Grupo_de_máscara_30" data-name="Grupo de máscara 30" transform="translate(-308 -92)" clip-path="url(#clip-path)">
    <g id="Ñëîé_1" data-name="Ñëîé 1" transform="translate(308 97.829)">
      <g id="Grupo_135" data-name="Grupo 135">
        <path id="Caminho_179" data-name="Caminho 179" d="M15.236,3.561a.731.731,0,0,0-.006.562l.362.9a.735.735,0,0,0,1.363-.547l-.361-.9a.734.734,0,0,0-1.357-.015Z" fill="#c2c2c2"/>
        <path id="Caminho_180" data-name="Caminho 180" d="M14.261,1.712a.735.735,0,0,0,1.364-.547l-.282-.7a.735.735,0,0,0-1.364.547Z" fill="#c2c2c2"/>
        <path id="Caminho_181" data-name="Caminho 181" d="M2.108,32.054a.738.738,0,0,0-.274.053l-1.373.551a.735.735,0,0,0,.548,1.363l1.373-.551a.735.735,0,0,0-.274-1.416Z" fill="#c2c2c2"/>
        <path id="Caminho_182" data-name="Caminho 182" d="M4.75,30.993a.738.738,0,0,0-.274.053l-.71.285a.735.735,0,1,0,.547,1.363l.71-.285a.735.735,0,0,0-.274-1.416Z" fill="#c2c2c2"/>
        <path id="Caminho_183" data-name="Caminho 183" d="M43.249,17.007a.738.738,0,0,0,.274-.053l1.45-.582a.735.735,0,1,0-.547-1.363l-1.45.582a.735.735,0,0,0,.274,1.416Z" fill="#c2c2c2"/>
        <path id="Caminho_184" data-name="Caminho 184" d="M46.674,15.633a.738.738,0,0,0,.274-.053l.591-.237a.735.735,0,1,0-.547-1.363l-.591.237a.735.735,0,0,0,.274,1.416Z" fill="#c2c2c2"/>
        <path id="Caminho_185" data-name="Caminho 185" d="M31.859,5.6a.734.734,0,0,0,.964-.387l.439-1.028a.734.734,0,1,0-1.351-.577l-.439,1.028a.734.734,0,0,0,.387.964Z" fill="#c2c2c2"/>
        <path id="Caminho_186" data-name="Caminho 186" d="M33.318,2.184a.734.734,0,0,0,.964-.387l.241-.563A.735.735,0,1,0,33.171.656l-.241.563A.735.735,0,0,0,33.318,2.184Z" fill="#c2c2c2"/>
        <path id="Caminho_187" data-name="Caminho 187" d="M.656,14.828l.863.369A.735.735,0,0,0,2.1,13.846l-.863-.369a.735.735,0,0,0-.577,1.351Z" fill="#c2c2c2"/>
        <path id="Caminho_188" data-name="Caminho 188" d="M3.661,16.112l.975.417a.735.735,0,0,0,.577-1.351l-.975-.417a.735.735,0,0,0-.577,1.351Z" fill="#c2c2c2"/>
        <path id="Caminho_189" data-name="Caminho 189" d="M44.278,31.862l-.914-.391a.735.735,0,0,0-.577,1.351l.914.391a.735.735,0,1,0,.577-1.351Z" fill="#c2c2c2"/>
        <path id="Caminho_190" data-name="Caminho 190" d="M47.344,33.172l-.779-.333a.735.735,0,0,0-.577,1.351l.779.333a.735.735,0,0,0,.577-1.351Z" fill="#c2c2c2"/>
        <path id="Caminho_191" data-name="Caminho 191" d="M11.36,12.094a.734.734,0,0,0,.52-1.254L9.243,8.2A.735.735,0,0,0,8.2,9.243L10.84,11.88A.729.729,0,0,0,11.36,12.094Z" fill="#c2c2c2"/>
        <path id="Caminho_192" data-name="Caminho 192" d="M39.277,7.988a.73.73,0,0,0-.52.215L36.12,10.84a.735.735,0,0,0,1.039,1.039L39.8,9.242a.734.734,0,0,0-.52-1.254Z" fill="#c2c2c2"/>
        <path id="Caminho_193" data-name="Caminho 193" d="M24,6.858a.735.735,0,0,0,.735-.735V2.395a.735.735,0,0,0-1.469,0v3.73A.735.735,0,0,0,24,6.859Z" fill="#c2c2c2"/>
        <path id="Caminho_194" data-name="Caminho 194" d="M6.124,23.265H2.394a.735.735,0,0,0,0,1.469h3.73a.735.735,0,0,0,0-1.469Z" fill="#c2c2c2"/>
        <path id="Caminho_195" data-name="Caminho 195" d="M46.34,24a.735.735,0,0,0-.735-.735h-3.73a.735.735,0,1,0,0,1.469h3.73A.735.735,0,0,0,46.34,24Z" fill="#c2c2c2"/>
        <path id="Caminho_196" data-name="Caminho 196" d="M37.021,19.626l-8.712-.748a.265.265,0,0,1-.221-.161l-3.4-8.055a.743.743,0,0,0-1.368,0l-3.4,8.055a.264.264,0,0,1-.221.161l-8.712.748a.743.743,0,0,0-.423,1.3l6.609,5.727a.265.265,0,0,1,.084.26l-1.981,8.517a.742.742,0,0,0,1.107.8l7.488-4.516a.264.264,0,0,1,.274,0l7.488,4.516a.746.746,0,0,0,.375.107h.02a.743.743,0,0,0,.734-.742.757.757,0,0,0-.033-.22c0-.006,0-.012,0-.017l-1.965-8.447a.264.264,0,0,1,.084-.26l6.609-5.727a.743.743,0,0,0-.423-1.3Zm-2.352,1.74L29.4,25.929a.74.74,0,0,0-.237.729l1.579,6.787a.265.265,0,0,1-.395.287l-5.967-3.6a.742.742,0,0,0-.767,0l-5.967,3.6a.266.266,0,0,1-.293-.013.264.264,0,0,1-.1-.274l1.578-6.787a.74.74,0,0,0-.237-.729l-5.267-4.563a.265.265,0,0,1,.15-.464l6.942-.6a.74.74,0,0,0,.621-.451l2.713-6.418a.265.265,0,0,1,.488,0l2.713,6.418a.74.74,0,0,0,.621.451l6.942.6a.265.265,0,0,1,.151.464Z" fill="#c2c2c2"/>
      </g>
    </g>
  </g>
</svg>
