<?xml version="1.0" encoding="UTF-8"?>
<svg id="Camada_2" data-name="Camada 2" xmlns="http://www.w3.org/2000/svg" viewBox="0 0 207 207">
  <defs>
    <style>
      .cls-1 {
        fill: none;
        stroke: #000;
        stroke-linecap: round;
        stroke-linejoin: round;
        stroke-width: 6px;
      }
    </style>
  </defs>
  <g id="Icons">
    <g>
      <rect class="cls-1" x="54.04" y="54.04" width="98.91" height="98.91"/>
      <g>
        <line class="cls-1" x1="128.51" y1="127.87" x2="128.51" y2="79.13"/>
        <polyline class="cls-1" points="74.49 127.87 91.56 79.62 95.5 79.62 110.6 127.87"/>
        <line class="cls-1" x1="104.95" y1="109.82" x2="80.88" y2="109.82"/>
      </g>
      <g>
        <g>
          <line class="cls-1" x1="103.5" y1="153.94" x2="103.5" y2="183.1"/>
          <circle class="cls-1" cx="103.5" cy="193.55" r="10.45" transform="translate(-106.55 129.88) rotate(-45)"/>
          <g>
            <polyline class="cls-1" points="84.77 153.95 84.77 170.78 69.31 186.25"/>
            <polyline class="cls-1" points="122.22 153.95 122.22 170.78 137.68 186.25"/>
          </g>
        </g>
        <g>
          <line class="cls-1" x1="103.5" y1="53.06" x2="103.5" y2="23.9"/>
          <circle class="cls-1" cx="103.5" cy="13.45" r="10.45" transform="translate(66.63 111.09) rotate(-76.72)"/>
          <g>
            <polyline class="cls-1" points="69.31 20.75 84.77 36.22 84.77 53.05"/>
            <polyline class="cls-1" points="137.68 20.75 122.22 36.22 122.22 53.05"/>
          </g>
        </g>
      </g>
      <g>
        <g>
          <line class="cls-1" x1="53.06" y1="103.5" x2="23.9" y2="103.5"/>
          <circle class="cls-1" cx="13.45" cy="103.5" r="10.45" transform="translate(-23.42 5.86) rotate(-13.28)"/>
          <g>
            <polyline class="cls-1" points="53.05 84.77 36.22 84.77 20.75 69.31"/>
            <polyline class="cls-1" points="53.05 122.22 36.22 122.22 20.75 137.68"/>
          </g>
        </g>
        <g>
          <line class="cls-1" x1="153.94" y1="103.5" x2="183.1" y2="103.5"/>
          <circle class="cls-1" cx="193.55" cy="103.5" r="10.45" transform="translate(-16.5 167.18) rotate(-45)"/>
          <g>
            <polyline class="cls-1" points="186.25 69.31 170.78 84.77 153.95 84.77"/>
            <polyline class="cls-1" points="186.25 137.68 170.78 122.22 153.95 122.22"/>
          </g>
        </g>
      </g>
    </g>
  </g>
</svg>