<?xml version="1.0" encoding="UTF-8"?>
<svg id="Camada_2" data-name="Camada 2" xmlns="http://www.w3.org/2000/svg" viewBox="0 0 148.98 202.92">
  <defs>
    <style>
      .cls-1 {
        fill: none;
        stroke: #000;
        stroke-linecap: round;
        stroke-linejoin: round;
        stroke-width: 6px;
      }
    </style>
  </defs>
  <g id="Icons">
    <g>
      <g>
        <g>
          <line class="cls-1" x1="103.87" y1="39.31" x2="92.58" y2="50.6"/>
          <path class="cls-1" d="M120.13,39.43c-4.52,4.46-11.8,4.41-16.26-.11-4.46-4.52-4.41-11.8.11-16.26,4.52-4.46,11.8-4.41,16.26.11,4.46,4.52,4.41,11.8-.11,16.26Z"/>
        </g>
        <g>
          <line class="cls-1" x1="117.29" y1="71.57" x2="101.34" y2="71.57"/>
          <path class="cls-1" d="M128.71,83.15c-6.35-.04-11.46-5.23-11.42-11.58.04-6.35,5.23-11.46,11.58-11.42,6.35.04,11.46,5.23,11.42,11.58-.04,6.35-5.23,11.46-11.58,11.42Z"/>
        </g>
        <g>
          <line class="cls-1" x1="26" y1="71.73" x2="41.96" y2="71.73"/>
          <path class="cls-1" d="M14.58,60.15c6.35.04,11.46,5.23,11.42,11.58-.04,6.35-5.23,11.46-11.58,11.42-6.35-.04-11.46-5.23-11.42-11.58.04-6.35,5.23-11.46,11.58-11.42Z"/>
        </g>
        <g>
          <line class="cls-1" x1="39.31" y1="39.43" x2="50.6" y2="50.71"/>
          <path class="cls-1" d="M39.43,23.16c4.46,4.52,4.41,11.8-.11,16.26-4.52,4.46-11.8,4.41-16.26-.11-4.46-4.52-4.41-11.8.11-16.26,4.52-4.46,11.8-4.41,16.26.11Z"/>
        </g>
        <g>
          <line class="cls-1" x1="71.57" y1="26" x2="71.57" y2="41.96"/>
          <path class="cls-1" d="M83.15,14.58c-.04,6.35-5.23,11.46-11.58,11.42-6.35-.04-11.46-5.23-11.42-11.58.04-6.35,5.23-11.46,11.58-11.42,6.35.04,11.46,5.23,11.42,11.58Z"/>
        </g>
      </g>
      <g>
        <path class="cls-1" d="M82.56,122.31v-20.84c0-5.82,4.71-10.55,10.53-10.57h0c5.85-.02,10.6,4.72,10.6,10.57v5.76"/>
        <path class="cls-1" d="M103.69,122.31v-14.14c0-5.83,4.72-10.55,10.55-10.57h0c5.84-.01,10.59,4.72,10.59,10.57v14.14"/>
        <path class="cls-1" d="M124.82,115.19c0-4.65,3.77-8.42,8.42-8.42h.09c7,.07,12.64,5.75,12.65,12.75,0,0-.1,28.86-.16,45.06-.03,7.99-2.07,15.85-6.01,22.81-.04.06-.07.13-.11.19-4.35,7.63-12.46,12.35-21.25,12.35-6.78,0-20.07,0-31.84,0-10.8,0-20.88-5.35-26.98-14.25-4.44-6.48-7.87-13.06-11.02-18.34-7.08-11.85-12.39-21.15-23.54-29.59-3.49-2.64-5.36-6.88-4.38-11.15h0c1.39-6.03,7.02-9.05,13.13-8.09,15.11,2.38,26.65,20.42,26.65,20.42v-66.15c0-6.15,5.04-11.14,11.22-11.04,6.1.09,10.88,5.34,10.88,11.44v28.29"/>
      </g>
    </g>
  </g>
</svg>