<?xml version="1.0" encoding="UTF-8"?>
<svg id="Camada_2" data-name="Camada 2" xmlns="http://www.w3.org/2000/svg" viewBox="0 0 197.87 196">
  <defs>
    <style>
      .cls-1 {
        fill: none;
        stroke: #000;
        stroke-linecap: round;
        stroke-linejoin: round;
        stroke-width: 6px;
      }
    </style>
  </defs>
  <g id="Icons">
    <g>
      <polyline class="cls-1" points="194.87 127.66 174.05 139.01 164.25 117.43"/>
      <polyline class="cls-1" points="61.36 3 81.58 15.37 67.78 34.64"/>
      <g>
        <path class="cls-1" d="M102.67,15.37c44.25,5.22,78.58,42.85,78.58,88.51,0,10.96-1.98,21.47-5.6,31.17"/>
        <path class="cls-1" d="M10.19,139.01c-4.63-10.78-7.19-22.66-7.19-35.14C3,59.69,35.16,23.01,77.34,15.97"/>
        <path class="cls-1" d="M24.12,161.49c16.35,19.28,40.75,31.51,68,31.51,28.79,0,54.4-13.66,70.69-34.84"/>
      </g>
      <polyline class="cls-1" points="45.05 160.16 21.43 158.16 21.15 181.86"/>
      <path class="cls-1" d="M133.02,104.18c0-2.74-.27-5.42-.78-8l11.76-8.83c-2.39-7.36-6.3-14.04-11.36-19.66l-13.52,5.77c-4-3.52-8.7-6.27-13.86-8.01l-1.76-14.59c-3.66-.78-7.46-1.19-11.35-1.19s-7.69.41-11.35,1.19l-1.76,14.59c-5.16,1.75-9.86,4.5-13.86,8.01l-13.52-5.77c-5.07,5.62-8.98,12.3-11.37,19.66l11.76,8.83c-.51,2.59-.78,5.26-.78,8s.27,5.42.78,8.01l-11.76,8.83c2.39,7.36,6.3,14.04,11.37,19.66l13.52-5.77c4,3.52,8.7,6.27,13.86,8.02l1.76,14.59c3.66.78,7.46,1.19,11.35,1.19s7.69-.41,11.35-1.19l1.76-14.59c5.16-1.75,9.86-4.5,13.86-8.02l13.52,5.77c5.07-5.62,8.98-12.3,11.36-19.66l-11.76-8.83c.51-2.59.78-5.27.78-8.01ZM92.13,124.63c-11.29,0-20.44-9.15-20.44-20.45s9.15-20.44,20.44-20.44,20.44,9.15,20.44,20.44-9.15,20.45-20.44,20.45Z"/>
    </g>
  </g>
</svg>