<?xml version="1.0" encoding="UTF-8"?>
<svg id="Camada_2" data-name="Camada 2" xmlns="http://www.w3.org/2000/svg" viewBox="0 0 250.62 179.2">
  <defs>
    <style>
      .cls-1 {
        fill: none;
        stroke: #000;
        stroke-linecap: round;
        stroke-linejoin: round;
        stroke-width: 6px;
      }
    </style>
  </defs>
  <g id="Icons">
    <g>
      <g>
        <path class="cls-1" d="M183.07,176.2c.26-4.34.04-8.76-.73-13.18l20.88-9.2-8.84-20.04-19.64,8.65c-4.49-7.56-10.48-13.8-17.38-18.55l7.23-18.62-20.41-7.92-6.9,17.78c-8.69-2.08-17.93-2.19-26.94-.04l-7.41-16.79-20.04,8.84,7.41,16.79c-7.67,5.22-13.84,12.08-18.15,19.9l-17.78-6.9-7.92,20.41,18.62,7.23c-.55,3.83-.69,7.74-.47,11.65"/>
        <path class="cls-1" d="M165.51,176.2c0-5.4-1.1-10.92-3.43-16.21-8.98-20.3-32.68-29.5-52.98-20.56-15.04,6.64-23.99,21.32-23.99,36.77"/>
        <line class="cls-1" x1="3" y1="176.2" x2="247.62" y2="176.2"/>
      </g>
      <polyline class="cls-1" points="69.32 100.15 18.85 137.18 3.56 116.33 74.46 64.31 91.82 51.58 114.63 82.68 196.27 20.4 185.9 6.3 244.25 3 223.59 57.65 211.56 41.25 161.12 79.75"/>
    </g>
  </g>
</svg>