<?xml version="1.0" encoding="UTF-8"?>
<svg id="Camada_2" data-name="Camada 2" xmlns="http://www.w3.org/2000/svg" viewBox="0 0 262.99 164.68">
  <defs>
    <style>
      .cls-1 {
        fill: #000;
        stroke-width: 0px;
      }
    </style>
  </defs>
  <g id="Icons">
    <g>
      <g>
        <path class="cls-1" d="M147.21,110.4h-28.19c-1.47,0-2.97.09-4.24-.25-3.41-.9-5.71-3.97-5.76-7.45-.07-4.71,0-9.43,0-14.14,0-1.82-.02-3.63,0-5.45.04-3.21,2.05-6.31,5.13-7.31,1.53-.5,2.93-.43,4.6-.43h24.59c1.28,0,2.57-.02,3.85,0,3.22.05,6.41,2.12,7.33,5.28.51,1.75.38,3.58.38,5.53v15.88c0,2.68-.77,5.01-2.97,6.74-1.29,1.02-3.03,1.58-4.73,1.61-3.54.06-3.55,5.56,0,5.5,5.03-.08,9.84-2.94,11.94-7.59,1.15-2.55,1.26-5.12,1.26-7.84v-16.76c0-3.74-1.18-7.3-3.87-9.99-2.59-2.59-6.07-3.86-9.71-3.87-5.04-.01-10.08,0-15.12,0s-9.83-.02-14.74,0c-3.89.02-7.7,1.57-10.24,4.58-2.3,2.73-3.22,5.96-3.22,9.48v16.87c0,2.94.22,5.74,1.7,8.39,2.32,4.16,6.79,6.66,11.51,6.72,9.82.14,19.66,0,29.48,0h1c3.54,0,3.55-5.5,0-5.5Z"/>
        <path class="cls-1" d="M146.95,72.61v-10.1c0-2.46-.28-4.78-1.41-7.02-.96-1.9-2.46-3.36-4.21-4.53-2.28-1.52-4.96-2.19-7.68-2.19-2.08,0-4.21-.13-6.28.19-6.19.96-10.38,6.55-10.39,12.64,0,3.67,0,7.33,0,11s5.5,3.55,5.5,0v-9.31c0-1.34-.08-2.67.22-3.8.57-2.17,2.19-4.01,4.22-4.76,1.65-.61,3.3-.46,5.16-.46s3.72,0,5.12.67c.55.26,1.06.58,1.56.91.45.3-.18-.18.19.14.18.15.35.3.52.46.21.2.4.41.61.62.61.63-.51-.81.02.03,1.03,1.62,1.34,3.21,1.34,5.09v10.41c0,3.54,5.5,3.55,5.5,0h0Z"/>
      </g>
      <path class="cls-1" d="M115.69,7.3c-6.3,7.18-13.81,13.14-21.92,18.15-3.74,2.31-7.59,4.42-11.53,6.35-3.36,1.65-6.69,3.14-9.92,4.43-4.03,1.62-7.7,3.55-10.53,6.95-2.93,3.53-4.7,7.72-5.12,12.28-.21,2.29.1,4.55.4,6.81.34,2.54.72,5.08,1.18,7.61.83,4.59,1.88,9.14,3.16,13.63,4.37,15.4,11.43,30.05,20.96,42.92,7.42,10.02,16.15,18.97,26.02,26.59,3.58,2.77,7.28,5.37,11.13,7.75,3.65,2.25,7.53,3.73,11.86,3.87,4.54.15,8.82-1.27,12.65-3.62,8.6-5.27,16.61-11.6,23.79-18.69,10.03-9.89,18.52-21.39,24.93-33.93,3.89-7.61,7.06-15.61,9.47-23.81,1.31-4.45,2.38-8.97,3.25-13.53.44-2.33.83-4.68,1.16-7.03.34-2.42.79-4.89.72-7.35-.12-4.34-1.55-8.65-4.13-12.14-2.76-3.75-6.38-6.26-10.68-7.96-7.14-2.82-14.55-6.42-21.39-10.56-8.07-4.88-15.6-10.67-21.94-17.67-3-3.31-6.24-5.93-10.55-7.34-3.98-1.3-8.39-1.37-12.43-.28-4.05,1.1-7.75,3.41-10.53,6.54-2.34,2.64,1.53,6.55,3.89,3.89,2.55-2.87,5.65-4.69,9.38-5.43,3.15-.62,6.88-.21,9.87,1.23,3.84,1.84,6.19,5.13,9.16,8.1,3.41,3.42,7.11,6.52,10.97,9.4,6.87,5.13,14.35,9.44,22.1,13.1,3.37,1.59,6.8,3.04,10.26,4.42,3.41,1.36,6.31,3.78,8.18,6.89,2.02,3.35,2.62,7,2.17,10.89-.53,4.6-1.32,9.18-2.31,13.7-1.77,8.14-4.28,16.26-7.5,23.88-2.93,6.91-6.48,13.57-10.58,19.87-3.72,5.73-7.44,10.56-12,15.62-3.9,4.33-8.09,8.39-12.52,12.17-.97.83-1.96,1.64-2.95,2.44-.48.38-.96.76-1.45,1.14-.5.39.26-.19-.37.28-.25.19-.5.38-.75.57-1.79,1.35-3.61,2.65-5.46,3.9-1.62,1.09-3.27,2.15-4.94,3.17-3.41,2.07-7.32,3.1-11.32,2.47-5-.79-9.48-4.26-13.54-7.12-.92-.65-1.83-1.31-2.73-1.98-.47-.35-.94-.71-1.41-1.06-.54-.41.26.2-.28-.22-.28-.22-.57-.44-.85-.67-2.06-1.63-4.07-3.33-6.03-5.08-4.48-4.01-8.69-8.32-12.58-12.9-4.34-5.11-8.2-10.47-11.78-16.42-3.92-6.5-7.27-13.34-9.95-20.39-3.09-8.13-5.37-16.56-6.9-25.12-.73-4.09-1.83-8.84-1.29-12.87.51-3.75,2.3-7.13,5.01-9.72,2.6-2.48,5.89-3.59,9.15-4.97,3.67-1.55,7.29-3.21,10.84-5.02,7.96-4.08,15.54-8.91,22.42-14.62,3.56-2.95,6.9-6.17,9.96-9.65.98-1.12,1.1-2.79,0-3.89-1-1-2.91-1.12-3.89,0Z"/>
      <g>
        <g>
          <g>
            <path class="cls-1" d="M214.97,61.19c2.03,0,4.05.02,6.08,0,3.91-.04,7.77-1.65,10.28-4.72,2.17-2.65,3.15-5.74,3.15-9.14v-13.37c0-3.54-5.5-3.55-5.5,0v12.03c0,2.01.04,3.8-.83,5.42-1.44,2.67-3.99,4.24-6.98,4.27-2.06.03-4.13,0-6.19,0-3.54,0-3.55,5.5,0,5.5h0Z"/>
            <path class="cls-1" d="M224.24,23.72c.02-1.7.43-2.96,1.51-4.53.47-.69-.18.19.14-.18.15-.17.29-.33.45-.49.12-.13.25-.25.38-.37.01-.01.68-.58.26-.25.35-.27.73-.51,1.12-.73.16-.09.32-.16.48-.25.3-.14.33-.15.08-.05.13-.05.25-.1.38-.14.44-.14.87-.28,1.32-.37.11-.02.7-.11.23-.06.23-.03.47-.04.71-.05.48-.02.95,0,1.42.04.51.05-.61-.15.24.04.27.06.54.12.8.19.26.07.52.16.78.25.07.02.48.21.09.03.41.19.8.4,1.18.64.19.12.37.24.55.38.39.29-.42-.42.17.15.39.37.77.73,1.12,1.14-.27-.32.02.02.06.08.15.22.3.44.44.67.09.15.18.31.26.47.01.02.38.81.18.32.18.42.31.86.42,1.3.04.18.08.36.12.54.05.33.06.36.03.1.02.14.03.28.04.42.03.43.03.86,0,1.28,0,.02-.12.93-.02.39-.03.18-.07.36-.11.54-.1.45-.24.88-.39,1.31-.26.77.24-.37-.15.34-.13.24-.25.48-.39.71-.11.19-.24.38-.36.56-.06.09-.42.53-.13.19-.29.34-.59.66-.92.97.05-.04-.61.53-.33.3.28-.22-.42.29-.37.26-.45.3-.92.56-1.4.79.11-.05.43-.14-.09.03-.26.09-.52.18-.78.25-.18.05-.35.09-.53.13.06-.01-.83.15-.46.09.37-.05-.54.04-.47.04-.24.01-.48.02-.71.01-.24,0-.47-.02-.71-.03-.62-.03.17.08-.38-.05-.54-.13-1.06-.26-1.58-.44-.8-.28.23.13-.21-.09-.28-.14-.56-.28-.83-.44-.15-.09-.3-.19-.45-.29-.15-.1-.29-.2-.44-.31.21.15.19.13-.06-.07-.32-.31-.63-.62-.94-.94-.56-.58.22.38-.23-.28-.15-.22-.3-.44-.44-.67-.14-.23-.26-.47-.39-.71-.27-.48.04.23-.15-.34-.18-.52-.31-1.04-.44-1.58-.02-.07-.08-.53-.03-.1-.05-.38-.06-.76-.06-1.13-.05-3.54-5.55-3.55-5.5,0,.08,5.49,3.46,10.28,8.59,12.21,4.94,1.87,10.96.27,14.3-3.82,3.46-4.24,4.12-10.26,1.27-15.03-2.84-4.75-8.34-7.07-13.73-6.1-6.05,1.09-10.35,6.7-10.43,12.73-.05,3.54,5.45,3.54,5.5,0Z"/>
          </g>
          <g>
            <path class="cls-1" d="M214.97,108.99c1.94,0,3.88,0,5.83,0,2.63,0,5.07,1.02,6.6,3.05,1.39,1.86,1.58,3.66,1.58,5.93v12.75c0,3.54,5.5,3.55,5.5,0v-12.82c0-2.91-.44-5.74-2.07-8.24-2.41-3.71-6.45-6.01-10.88-6.17-2.18-.08-4.38,0-6.56,0-3.54,0-3.55,5.5,0,5.5h0Z"/>
            <path class="cls-1" d="M218.73,140.95c.08,5.49,3.46,10.28,8.59,12.21,4.94,1.87,10.96.27,14.3-3.82,3.46-4.24,4.12-10.26,1.27-15.03-2.84-4.75-8.34-7.07-13.73-6.1-6.05,1.09-10.35,6.7-10.43,12.73-.05,3.54,5.45,3.54,5.5,0,.02-1.7.43-2.96,1.51-4.53.47-.69-.18.19.14-.18.15-.17.29-.33.45-.49.12-.13.25-.25.38-.37.01-.01.68-.58.26-.25.35-.27.73-.51,1.12-.73.16-.09.32-.16.48-.25.3-.14.33-.15.08-.05.13-.05.25-.1.38-.14.44-.14.87-.28,1.32-.37.11-.02.7-.11.23-.06.23-.03.47-.04.71-.05.48-.02.95,0,1.42.04.51.05-.61-.15.24.04.27.06.54.12.8.19.26.07.52.16.78.25.07.02.48.21.09.03.41.19.8.4,1.18.64.19.12.37.24.55.38.39.29-.42-.42.17.15.39.38.77.73,1.12,1.14-.27-.32.02.02.06.08.15.22.3.44.44.67.09.15.18.31.26.47.01.02.38.81.18.32.18.42.31.86.42,1.3.04.18.08.36.12.54.05.33.06.36.03.1.02.14.03.28.04.42.03.43.03.86,0,1.28,0,.02-.12.93-.02.39-.03.18-.07.36-.11.54-.1.45-.24.88-.39,1.31-.26.77.24-.37-.15.34-.13.24-.25.48-.39.71-.11.19-.24.38-.36.56-.06.09-.42.53-.13.19-.29.34-.59.66-.92.97.05-.04-.61.53-.33.3.28-.22-.42.29-.37.26-.45.3-.92.56-1.4.79.11-.05.43-.14-.09.03-.26.09-.52.18-.78.25-.18.05-.35.09-.53.13.06-.01-.83.15-.46.09.37-.05-.54.04-.47.04-.24.01-.48.02-.71.01-.24,0-.47-.02-.71-.03-.62-.03.17.08-.38-.05-.54-.13-1.06-.26-1.58-.44-.8-.28.23.13-.21-.09-.28-.14-.56-.28-.83-.44-.15-.09-.3-.19-.45-.29-.15-.1-.29-.2-.44-.31.21.15.19.13-.06-.07-.32-.31-.63-.62-.94-.94-.56-.57.22.38-.23-.28-.15-.22-.3-.44-.44-.67-.14-.23-.26-.47-.39-.71-.27-.48.04.23-.15-.34-.18-.52-.31-1.04-.44-1.58-.02-.07-.08-.53-.03-.1-.05-.38-.06-.76-.06-1.13-.05-3.54-5.55-3.55-5.5,0Z"/>
          </g>
        </g>
        <g>
          <path class="cls-1" d="M242.55,82.34c.02-1.7.43-2.96,1.51-4.53.47-.69-.18.19.14-.18.15-.17.29-.33.45-.49.12-.13.25-.25.38-.37.01-.01.68-.58.26-.25.35-.27.73-.51,1.12-.73.16-.09.32-.16.48-.25.3-.14.33-.15.08-.05.13-.05.25-.1.38-.14.44-.14.87-.28,1.32-.37.11-.02.7-.11.23-.06.23-.03.47-.04.71-.05.48-.02.95,0,1.42.04.51.05-.61-.15.24.04.27.06.54.12.8.19.26.07.52.16.78.25.07.02.48.21.09.03.41.19.8.4,1.18.64.19.12.37.24.55.38.39.29-.42-.42.17.15.39.37.77.73,1.12,1.14-.27-.32.02.02.06.08.15.22.3.44.44.67.09.15.18.31.26.47,0,.02.38.81.18.32.18.42.31.86.42,1.3.05.18.08.36.12.54.05.33.06.36.03.1.02.14.03.28.04.42.03.43.03.86,0,1.28,0,.02-.12.93-.02.39-.03.18-.07.36-.11.54-.1.45-.24.88-.39,1.31-.26.77.24-.37-.15.34-.13.24-.25.48-.39.71-.11.19-.24.38-.36.56-.06.09-.42.53-.13.19-.29.34-.59.66-.92.97.05-.04-.61.53-.33.3.28-.22-.42.29-.37.26-.45.3-.92.56-1.4.79.11-.05.43-.14-.09.03-.26.09-.52.18-.78.25-.18.05-.35.09-.53.13.06-.01-.83.15-.46.09.37-.05-.54.04-.47.04-.24.01-.48.02-.71.01-.24,0-.47-.02-.71-.03-.62-.03.17.08-.38-.05-.54-.13-1.06-.26-1.58-.44-.8-.28.23.13-.21-.09-.28-.14-.56-.28-.83-.44-.15-.09-.3-.19-.45-.29-.15-.1-.29-.2-.44-.31.21.15.19.13-.06-.07-.32-.31-.63-.62-.94-.94-.56-.57.22.38-.23-.28-.15-.22-.3-.44-.44-.67-.14-.23-.26-.47-.39-.71-.27-.48.04.23-.15-.34-.18-.52-.31-1.04-.44-1.58-.02-.07-.08-.53-.03-.1-.05-.38-.06-.76-.06-1.13-.05-3.54-5.55-3.55-5.5,0,.08,5.49,3.46,10.28,8.59,12.21,4.94,1.87,10.96.27,14.3-3.82,3.46-4.24,4.12-10.26,1.27-15.03-2.84-4.75-8.34-7.07-13.73-6.1-6.05,1.09-10.35,6.7-10.43,12.73-.05,3.54,5.45,3.54,5.5,0Z"/>
          <path class="cls-1" d="M214.97,85.09h24.82c3.54,0,3.55-5.5,0-5.5h-24.82c-3.54,0-3.55,5.5,0,5.5h0Z"/>
        </g>
      </g>
      <g>
        <g>
          <g>
            <path class="cls-1" d="M48.02,55.69c-1.94,0-3.88,0-5.83,0-2.63,0-5.07-1.02-6.6-3.05-1.39-1.86-1.58-3.66-1.58-5.93v-12.75c0-3.54-5.5-3.55-5.5,0v12.82c0,2.91.44,5.74,2.07,8.24,2.41,3.71,6.45,6.01,10.88,6.17,2.18.08,4.38,0,6.56,0,3.54,0,3.55-5.5,0-5.5h0Z"/>
            <path class="cls-1" d="M44.26,23.72c-.08-5.49-3.46-10.28-8.59-12.21-4.94-1.87-10.96-.27-14.3,3.82-3.46,4.24-4.12,10.26-1.27,15.03,2.84,4.75,8.34,7.07,13.73,6.1,6.05-1.09,10.35-6.7,10.43-12.73.05-3.54-5.45-3.54-5.5,0-.02,1.7-.43,2.96-1.51,4.53-.47.69.18-.19-.14.18-.15.17-.29.33-.45.49-.12.13-.25.25-.38.37-.01.01-.68.58-.26.25-.35.27-.73.51-1.12.73-.16.09-.32.16-.48.25-.3.14-.33.15-.08.05-.13.05-.25.1-.38.14-.44.14-.87.28-1.32.37-.11.02-.7.11-.23.06-.23.03-.47.04-.71.05-.48.02-.95,0-1.42-.04-.51-.05.61.15-.24-.04-.27-.06-.54-.12-.8-.19-.26-.07-.52-.16-.78-.25-.07-.02-.48-.21-.09-.03-.41-.19-.8-.4-1.18-.64-.19-.12-.37-.24-.55-.38-.39-.29.42.42-.17-.15-.38-.37-.77-.73-1.11-1.14.27.32-.02-.02-.06-.08-.15-.22-.3-.44-.44-.67-.09-.15-.18-.31-.26-.47,0-.02-.38-.81-.18-.32-.18-.42-.31-.86-.42-1.3-.04-.18-.08-.36-.12-.54-.05-.33-.06-.36-.03-.1-.02-.14-.03-.28-.04-.42-.03-.43-.03-.86,0-1.28,0-.02.12-.93.02-.39.03-.18.07-.36.11-.54.1-.45.24-.88.39-1.31.26-.77-.24.37.15-.34.13-.24.25-.48.39-.71.11-.19.24-.38.36-.56.06-.09.42-.53.13-.19.29-.34.59-.66.92-.97-.04.04.61-.53.33-.3-.28.22.42-.29.37-.26.45-.3.92-.56,1.4-.79-.11.05-.43.14.09-.03.26-.09.51-.18.78-.25.18-.05.35-.09.53-.13-.06.01.83-.15.46-.09-.37.05.54-.04.47-.04.24-.01.48-.02.71-.01.24,0,.47.02.71.03.62.03-.17-.08.38.05.54.13,1.06.26,1.58.44.8.28-.23-.13.21.09.28.14.56.28.83.44.15.09.3.19.45.29.15.1.29.2.44.31-.21-.15-.19-.13.06.07.32.31.63.62.94.94.56.57-.22-.38.23.28.15.22.3.44.44.67.14.23.26.47.39.71.27.48-.04-.23.15.34.18.52.31,1.04.44,1.58.02.07.08.53.03.1.05.38.06.76.06,1.13.05,3.54,5.55,3.55,5.5,0Z"/>
          </g>
          <g>
            <path class="cls-1" d="M48.02,103.48c-2.03,0-4.05-.02-6.08,0-3.91.04-7.77,1.65-10.28,4.72-2.17,2.65-3.15,5.74-3.15,9.14v13.37c0,3.54,5.5,3.55,5.5,0v-12.03c0-2.01-.04-3.8.83-5.42,1.44-2.67,3.99-4.24,6.98-4.27,2.06-.03,4.13,0,6.19,0,3.54,0,3.55-5.5,0-5.5h0Z"/>
            <path class="cls-1" d="M38.76,140.95c-.02,1.7-.43,2.96-1.51,4.53-.47.69.18-.19-.14.18-.15.17-.29.33-.45.49-.12.13-.25.25-.38.37-.01.01-.68.58-.26.25-.35.27-.73.51-1.12.73-.16.09-.32.16-.48.25-.3.14-.33.15-.08.05-.13.05-.25.1-.38.14-.44.14-.87.28-1.32.37-.11.02-.7.11-.23.06-.23.03-.47.04-.71.05-.48.02-.95,0-1.42-.04-.51-.05.61.15-.24-.04-.27-.06-.54-.12-.8-.19-.26-.07-.52-.16-.78-.25-.07-.02-.48-.21-.09-.03-.41-.19-.8-.4-1.18-.64-.19-.12-.37-.24-.55-.38-.39-.29.42.42-.17-.15-.38-.38-.77-.73-1.11-1.14.27.32-.02-.02-.06-.08-.15-.22-.3-.44-.44-.67-.09-.15-.18-.31-.26-.47,0-.02-.38-.81-.18-.32-.18-.42-.31-.86-.42-1.3-.04-.18-.08-.36-.12-.54-.05-.33-.06-.36-.03-.1-.02-.14-.03-.28-.04-.42-.03-.43-.03-.86,0-1.28,0-.02.12-.93.02-.39.03-.18.07-.36.11-.54.1-.45.24-.88.39-1.31.26-.77-.24.37.15-.34.13-.24.25-.48.39-.71.11-.19.24-.38.36-.56.06-.09.42-.53.13-.19.29-.34.59-.66.92-.97-.04.04.61-.53.33-.3-.28.22.42-.29.37-.26.45-.3.92-.56,1.4-.79-.11.05-.43.14.09-.03.26-.09.51-.18.78-.25.18-.05.35-.09.53-.13-.06.01.83-.15.46-.09-.37.05.54-.04.47-.04.24-.01.48-.02.71-.01.24,0,.47.02.71.03.62.03-.17-.08.38.05.54.13,1.06.26,1.58.44.8.28-.23-.13.21.09.28.14.56.28.83.44.15.09.3.19.45.29s.29.2.44.31c-.21-.15-.19-.13.06.07.32.31.63.62.94.94.56.57-.22-.38.23.28.15.22.3.44.44.67.14.23.26.47.39.71.27.48-.04-.23.15.34.18.52.31,1.04.44,1.58.02.07.08.53.03.1.05.38.06.76.06,1.13.05,3.54,5.55,3.55,5.5,0-.08-5.49-3.46-10.28-8.59-12.21-4.94-1.87-10.96-.27-14.3,3.82-3.46,4.24-4.12,10.26-1.27,15.03,2.84,4.75,8.34,7.07,13.73,6.1,6.05-1.09,10.35-6.7,10.43-12.73.05-3.54-5.45-3.54-5.5,0Z"/>
          </g>
        </g>
        <g>
          <path class="cls-1" d="M25.95,82.34c-.08-5.49-3.46-10.28-8.59-12.21-4.94-1.87-10.96-.27-14.3,3.82-3.46,4.24-4.12,10.26-1.27,15.03,2.84,4.75,8.34,7.07,13.73,6.1,6.05-1.09,10.35-6.7,10.43-12.73.05-3.54-5.45-3.54-5.5,0-.02,1.7-.43,2.96-1.51,4.53-.47.69.18-.19-.14.18-.15.17-.29.33-.45.49-.12.13-.25.25-.38.37-.01.01-.68.58-.26.25-.35.27-.73.51-1.12.73-.16.09-.32.16-.48.25-.3.14-.32.15-.08.05-.13.05-.25.1-.38.14-.44.14-.87.28-1.32.37-.11.02-.7.11-.23.06-.23.03-.47.04-.71.05-.48.02-.95,0-1.42-.04-.51-.05.61.15-.24-.04-.27-.06-.54-.12-.8-.19-.26-.07-.52-.16-.78-.25-.07-.02-.48-.21-.09-.03-.41-.19-.8-.4-1.18-.64-.19-.12-.37-.24-.55-.38-.39-.29.42.42-.17-.15-.39-.38-.77-.73-1.12-1.14.27.32-.02-.02-.06-.08-.15-.22-.3-.44-.44-.67-.09-.15-.18-.31-.26-.47-.01-.02-.38-.82-.18-.32-.18-.42-.31-.86-.42-1.3-.04-.18-.08-.36-.12-.54-.05-.33-.06-.36-.03-.1-.02-.14-.03-.28-.04-.42-.03-.43-.03-.86,0-1.28,0-.02.12-.93.02-.39.03-.18.07-.36.11-.54.1-.45.24-.88.39-1.31.26-.77-.24.37.15-.34.13-.24.25-.48.39-.71.11-.19.24-.38.36-.56.06-.09.42-.53.13-.19.29-.34.59-.66.92-.97-.05.04.61-.53.33-.3-.28.22.42-.29.37-.26.45-.3.92-.56,1.4-.79-.11.05-.43.14.09-.03.26-.09.52-.18.78-.25.18-.05.35-.09.53-.13-.06.01.83-.15.46-.09-.37.05.54-.04.47-.04.24-.01.48-.02.71-.01.24,0,.47.02.71.03.62.03-.17-.08.38.05.54.13,1.06.26,1.58.44.8.28-.23-.13.21.09.28.14.56.28.83.44.15.09.3.19.45.29.15.1.29.2.44.31-.21-.15-.19-.13.06.07.32.31.63.62.94.94.56.58-.22-.38.23.28.15.22.3.44.44.67.14.23.25.47.39.71.27.48-.04-.23.15.34.18.52.31,1.04.44,1.58.02.07.08.53.03.1.05.38.06.76.06,1.13.05,3.54,5.55,3.55,5.5,0Z"/>
          <path class="cls-1" d="M48.02,79.59h-24.82c-3.54,0-3.55,5.5,0,5.5h24.82c3.54,0,3.55-5.5,0-5.5h0Z"/>
        </g>
      </g>
    </g>
  </g>
</svg>