<?xml version="1.0" encoding="UTF-8"?>
<svg id="Camada_2" data-name="Camada 2" xmlns="http://www.w3.org/2000/svg" viewBox="0 0 203.28 210.48">
  <defs>
    <style>
      .cls-1 {
        fill: none;
        stroke: #000;
        stroke-linecap: round;
        stroke-linejoin: round;
        stroke-width: 5px;
      }
    </style>
  </defs>
  <g id="Icons">
    <g>
      <path class="cls-1" d="M200.78,134.64v32.84c0,8.5-6.89,15.39-15.39,15.39h-32.28c-4.08,5.71-10.62,12.56-18.25,12.01,3.94-3.73,4.91-8.2,4.77-12.01h0s-8.79-.01-8.79-.01c-.8,0-1.58-.06-2.34-.18-.27-.04-.53-.09-.8-.14-.24-.05-.47-.11-.71-.17-.23-.06-.45-.12-.67-.19-.48-.15-.95-.32-1.41-.51-5.52-2.34-9.4-7.81-9.4-14.19v-32.84c0-8.5,6.89-15.39,15.39-15.39h54.5c8.5,0,15.39,6.89,15.39,15.39Z"/>
      <path class="cls-1" d="M35.26,40.1V11.68c0-5.07,3.84-9.18,8.57-9.18h102.27c4.73,0,8.57,4.11,8.57,9.18v7.21"/>
      <path class="cls-1" d="M154.68,198.8c0,5.07-3.84,9.18-8.57,9.18H43.84c-4.73,0-8.57-4.11-8.57-9.18v-32.78"/>
      <line class="cls-1" x1="154.68" y1="76.66" x2="154.68" y2="108.17"/>
      <line class="cls-1" x1="81.1" y1="195.45" x2="108.85" y2="195.45"/>
      <path class="cls-1" d="M115.48,15.27h0c0,4-3.24,7.24-7.24,7.24h-26.54c-4,0-7.24-3.24-7.24-7.24h0"/>
      <g>
        <path class="cls-1" d="M85.24,120.48c-2.61,1.43-5.75,1.57-9.13.6-.02,0-.04-.02-.06-.02-.61-.17-1.23-.38-1.85-.63-.04-.02-.07-.03-.1-.04-8.07-3.23-17.2-12.19-23.92-24.46-6.47-11.8-9.15-23.84-7.89-32.34,0,0,0-.01,0-.01.72-4.87,2.74-8.58,6.1-10.41,9.19-5.04,24.89,5.95,35.07,24.54,10.18,18.59,10.97,37.74,1.78,42.78Z"/>
        <path class="cls-1" d="M76.1,121.07s-.04-.02-.06-.02"/>
        <path class="cls-1" d="M74.19,120.42s-.07-.03-.1-.04"/>
        <path class="cls-1" d="M74.09,120.39c-7.82-3.13-16.81-1.96-24.68.33-4.05,1.18-7.99,2.73-11.77,4.59-4.01,1.97-7.81,4.68-12.33,5.32-8.16,1.17-16.4-2.96-20.35-10.19-.61-1.11-1.1-2.27-1.48-3.44-2.91-8.95.85-18.99,9.42-23.68,12.35-6.75,24.75-15.76,29.39-29.74-1.25,8.49,1.42,20.53,7.89,32.34,6.72,12.27,15.85,21.24,23.92,24.46Z"/>
        <path class="cls-1" d="M42.28,63.59s0-.01,0-.01c.01-.02.01-.05.02-.08,0-.03.03-.07.02-.11"/>
        <path class="cls-1" d="M72.16,101.58c3.22-4.65,4.31-10.69,2.42-16.49-2.73-8.39-10.81-13.54-19.23-12.91"/>
        <path class="cls-1" d="M27.44,109.97c-5-6.72-7.08-14.84-7.95-20.51"/>
        <path class="cls-1" d="M49.9,130.55l9.3,8.33c2.23,2.01,1.43,5.69-1.44,6.58l-14.93,4.65c-1.3.4-2.72.1-3.74-.82l-19.05-18.64"/>
      </g>
      <g>
        <circle class="cls-1" cx="176.68" cy="26.6" r="11.12"/>
        <circle class="cls-1" cx="139.6" cy="48.85" r="11.12"/>
        <circle class="cls-1" cx="176.68" cy="71.09" r="11.12"/>
        <polyline class="cls-1" points="167.32 32.59 156.53 39.06 149.3 43.4"/>
        <polyline class="cls-1" points="166.52 66.55 156.53 59.49 149.26 54.35"/>
      </g>
    </g>
  </g>
</svg>