<?xml version="1.0" encoding="UTF-8"?>
<svg id="Camada_1" data-name="Camada 1" xmlns="http://www.w3.org/2000/svg" version="1.1" viewBox="0 0 32 32">
  <defs>
    <style>
      .cls-1 {
        fill: none;
        stroke: #000;
        stroke-linecap: round;
        stroke-linejoin: round;
        stroke-width: .8px;
      }
    </style>
  </defs>
  <g id="Grupo_de_m치scara_24" data-name="Grupo de m치scara 24">
    <g id="Layer_1" data-name="Layer 1">
      <g id="Grupo_115" data-name="Grupo 115">
        <rect id="Ret칙ngulo_61" data-name="Ret칙ngulo 61" class="cls-1" x="10.2" y="25.5" width="7.5" height="3.7"/>
        <path id="Caminho_112" data-name="Caminho 112" class="cls-1" d="M20.3,25.5H4c-1.5,0-2.8-1.2-2.8-2.8,0,0,0,0,0,0v-11.9c0-1.5,1.3-2.8,2.8-2.8,0,0,0,0,0,0h2.6v11.3c0,.7.6,1.3,1.3,1.3h11.4c-.1.4-.2.9-.2,1.4,0,1.3.4,2.5,1.2,3.5h0Z"/>
        <path id="Caminho_113" data-name="Caminho 113" class="cls-1" d="M26.7,10.8v5.6c-.6-.2-1.1-.3-1.7-.3-1.3,0-2.6.5-3.6,1.3v-9.4h2.6c1.5,0,2.8,1.3,2.8,2.8Z"/>
        <g id="Grupo_113" data-name="Grupo 113">
          <path id="Caminho_114" data-name="Caminho 114" class="cls-1" d="M21.3,4.1v1.6H6.6v-1.6c0-.7.6-1.3,1.3-1.3,0,0,0,0,0,0h12.2c.7,0,1.3.6,1.3,1.3h0s0,0,0,0Z"/>
          <path id="Caminho_115" data-name="Caminho 115" class="cls-1" d="M21.3,5.7v11.7c-1,.8-1.7,1.9-2,3.2H7.9c-.7,0-1.3-.6-1.3-1.3,0,0,0,0,0,0V5.7h14.7Z"/>
          <line id="Linha_3" data-name="Linha 3" class="cls-1" x1="8.7" y1="4.2" x2="9.6" y2="4.2"/>
          <g id="Grupo_112" data-name="Grupo 112">
            <path id="Caminho_116" data-name="Caminho 116" class="cls-1" d="M11,10.9l-2.3,2.3,2.3,2.3"/>
            <path id="Caminho_117" data-name="Caminho 117" class="cls-1" d="M16.9,10.9l2.3,2.3-2.3,2.3"/>
            <line id="Linha_4" data-name="Linha 4" class="cls-1" x1="12.6" y1="16.6" x2="15.3" y2="9.7"/>
          </g>
        </g>
        <g id="Grupo_114" data-name="Grupo 114">
          <path id="Caminho_118" data-name="Caminho 118" class="cls-1" d="M30.8,22c0,3.2-2.6,5.8-5.8,5.8s-5.8-2.6-5.8-5.8c0-.5,0-.9.2-1.4.6-2.6,3-4.5,5.7-4.5.6,0,1.2,0,1.7.3.9.3,1.6.7,2.3,1.3-.2,0-.3.2-.4.3l-1.9,1.9-1.7,1.7-1.3-1.3c-.5-.5-1.3-.5-1.8,0-.5.5-.5,1.3,0,1.8l2.3,2.3c.5.5,1.3.5,1.8,0,0,0,0,0,0,0l4.5-4.5c.3.7.4,1.4.4,2.1h0Z"/>
          <path id="Caminho_119" data-name="Caminho 119" class="cls-1" d="M30.4,19.9l-4.5,4.5c-.5.5-1.3.5-1.8,0,0,0,0,0,0,0l-2.3-2.3c-.5-.5-.5-1.3,0-1.8.5-.5,1.3-.5,1.8,0h0l1.3,1.3,1.7-1.7,1.9-1.9c.1-.1.3-.2.4-.3.7-.3,1.4,0,1.7.7.2.5,0,1.1-.3,1.4h0Z"/>
        </g>
        <line id="Linha_5" data-name="Linha 5" class="cls-1" x1="6.9" y1="29.2" x2="21" y2="29.2"/>
      </g>
    </g>
  </g>
</svg>