<?xml version="1.0" encoding="UTF-8"?>
<svg id="Camada_1" data-name="Camada 1" xmlns="http://www.w3.org/2000/svg" version="1.1" viewBox="0 0 48 48">
  <defs>
    <style>
      .cls-1 {
        fill: none;
        stroke: #000;
        stroke-linecap: round;
        stroke-linejoin: round;
        stroke-width: 1.8px;
      }
    </style>
  </defs>
  <g id="Grupo_de_máscara_41" data-name="Grupo de máscara 41">
    <g id="Preview">
      <g id="Grupo_166" data-name="Grupo 166">
        <path id="Caminho_245" data-name="Caminho 245" class="cls-1" d="M16.3,37.4c3.3-4.4,3.3-12,3.3-12h-3.9l8.3-8.7,8.3,8.7h-3.9s0,7.6,3.3,12"/>
        <path id="Caminho_246" data-name="Caminho 246" class="cls-1" d="M46.5,26.4v-4.8c0-1.3-1.1-2.4-2.4-2.4h-.5c-1,0-1.9-.6-2.3-1.6-.2-.4-.3-.9-.5-1.3-.4-.9-.2-2,.5-2.7l.3-.3c.9-.9.9-2.5,0-3.4l-3.4-3.4c-.9-.9-2.5-.9-3.4,0l-.3.3c-.7.7-1.8.9-2.7.5-.4-.2-.8-.4-1.3-.5-1-.3-1.6-1.2-1.6-2.3v-.5c0-1.3-1.1-2.4-2.4-2.4,0,0,0,0,0,0h-4.8c-1.3,0-2.4,1.1-2.4,2.4h0v.5c0,1-.6,1.9-1.6,2.3-.4.2-.9.3-1.3.5-.9.4-2,.2-2.7-.5l-.3-.3c-.9-.9-2.5-.9-3.4,0l-3.4,3.4c-.9.9-.9,2.5,0,3.4l.3.3c.7.7.9,1.8.5,2.7-.2.4-.4.8-.5,1.3-.3,1-1.2,1.6-2.3,1.6h-.5c-1.3,0-2.4,1.1-2.4,2.4,0,0,0,0,0,0v4.8c0,1.3,1.1,2.4,2.4,2.4h.5c1,0,1.9.6,2.3,1.6.2.4.3.9.5,1.3.4.9.2,2-.5,2.7l-.3.3c-.9.9-.9,2.5,0,3.4l3.4,3.4c.9.9,2.5.9,3.4,0l.3-.3c.7-.7,1.8-.9,2.7-.5.4.2.8.4,1.3.5,1,.3,1.6,1.2,1.6,2.3v.5c0,1.3,1.1,2.4,2.4,2.4h4.8c1.3,0,2.4-1.1,2.4-2.4h0v-.5c0-1,.6-1.9,1.6-2.3.4-.2.9-.3,1.3-.5.9-.4,2-.2,2.7.5l.3.3c.9.9,2.5.9,3.4,0l3.4-3.4c.9-.9.9-2.5,0-3.4l-.3-.3c-.7-.7-.9-1.8-.5-2.7.2-.4.4-.8.5-1.3.3-1,1.2-1.6,2.3-1.6h.5c1.3,0,2.4-1.1,2.4-2.4h0s0,0,0,0Z"/>
      </g>
    </g>
  </g>
</svg>