<?xml version="1.0" encoding="UTF-8"?>
<svg id="Camada_1" data-name="Camada 1" xmlns="http://www.w3.org/2000/svg" version="1.1" viewBox="0 0 48 48">
  <defs>
    <style>
      .cls-1 {
        fill: none;
        stroke: #000;
        stroke-linecap: round;
        stroke-linejoin: round;
        stroke-width: 1.4px;
      }
    </style>
  </defs>
  <g id="Grupo_de_máscara_43" data-name="Grupo de máscara 43">
    <g id="Preview">
      <g id="Grupo_171" data-name="Grupo 171">
        <g id="Grupo_170" data-name="Grupo 170">
          <circle id="Elipse_24" data-name="Elipse 24" class="cls-1" cx="24" cy="24" r="3.9"/>
          <path id="Caminho_249" data-name="Caminho 249" class="cls-1" d="M34.1,24.8v-1.5c0-.4-.4-.8-.8-.8h-.2c-.4,0-.7-.2-.8-.6-.2-.8-.5-1.5-.9-2.2-.2-.3-.1-.7.1-1l.2-.2c.3-.3.3-.8,0-1.1,0,0,0,0,0,0l-1.1-1.1c-.3-.3-.8-.3-1.1,0,0,0,0,0,0,0l-.2.2c-.2.3-.6.3-1,.1-.7-.4-1.4-.7-2.2-.9-.4-.1-.6-.4-.6-.8v-.2c0-.4-.4-.8-.8-.8h-1.5c-.4,0-.8.4-.8.8v.2c0,.4-.2.7-.6.8-.8.2-1.5.5-2.2.9-.3.2-.7.1-1-.1l-.2-.2c-.3-.3-.8-.3-1.1,0,0,0,0,0,0,0l-1.1,1.1c-.3.3-.3.8,0,1.1,0,0,0,0,0,0l.2.2c.3.2.3.6.1,1-.4.7-.7,1.4-.9,2.2-.1.4-.4.6-.8.6h-.2c-.4,0-.8.4-.8.8v1.5c0,.4.4.8.8.8h.2c.4,0,.7.2.8.6.2.8.5,1.5.9,2.2.2.3.1.7-.1,1l-.2.2c-.3.3-.3.8,0,1.1,0,0,0,0,0,0l1.1,1.1c.3.3.8.3,1.1,0,0,0,0,0,0,0l.2-.2c.2-.3.6-.3,1-.1.7.4,1.4.7,2.2.9.4.1.6.4.6.8v.2c0,.4.4.8.8.8h1.5c.4,0,.8-.4.8-.8v-.2c0-.4.2-.7.6-.8.8-.2,1.5-.5,2.2-.9.3-.2.7-.1,1,.1l.2.2c.3.3.8.3,1.1,0,0,0,0,0,0,0l1.1-1.1c.3-.3.3-.8,0-1.1,0,0,0,0,0,0l-.2-.2c-.3-.2-.3-.6-.1-1,.4-.7.7-1.4.9-2.2.1-.4.4-.6.8-.6h.2c.4,0,.8-.4.8-.8,0,0,0,0,0,0Z"/>
        </g>
        <path id="Caminho_250" data-name="Caminho 250" class="cls-1" d="M21.3.8C14.1,1.6,7.6,5.8,3.9,12.1l2.9-.2s0,0,0,0c0,0,.1,0,.2,0,0,0,.1,0,.2,0,0,0,.1,0,.2,0,0,0,.1,0,.2,0s0,0,.1,0c0,0,0,0,.1,0,0,0,0,0,.1.1,0,0,0,0,.1.1,0,0,0,0,.1.1,0,0,0,0,.1.1,0,0,0,0,0,0l1.6,2.6c2.4-4,6.5-6.7,11-7.5,0-.1,0-.2.1-.3l2.1-3.4-2-3.3h0ZM41.1,36.1s0,0,0,0c0,0-.1,0-.2,0,0,0-.1,0-.2,0,0,0-.1,0-.2,0,0,0-.1,0-.2,0,0,0,0,0-.1,0,0,0,0,0-.1,0,0,0,0,0-.1,0,0,0,0,0-.1-.1,0,0,0,0-.1-.1h-.1c0-.2,0-.2,0-.2l-1.6-2.6c-2.5,4-6.5,6.7-11,7.5,0,.1,0,.2-.1.3l-2.1,3.4,2,3.3c7.2-.8,13.7-5,17.4-11.3l-2.9.2h0ZM21.2,44.7c0,0,0,0,0-.2,0,0,0-.1,0-.2,0,0,0-.1,0-.2v-.2c0,0,0-.1,0-.2s0-.1,0-.2v-.2c0,0,0-.1,0-.2,0,0,0-.1,0-.2,0,0,0-.1,0-.2,0,0,0,0,0,0l1.6-2.6c-4.2-.3-8-2.2-10.9-5.3-.1,0-.2,0-.3,0h-4c0,0-1.7,3.5-1.7,3.5,4.1,5.1,10.3,8.3,16.8,8.6l-1.5-2.5s0,0,0,0h0ZM6.1,31.9c0,0,.1,0,.2,0h.2s0,0,0,0h3c-2.1-4-2.5-8.5-1.2-12.7,0,0-.1-.2-.2-.3l-2.1-3.4-3.8.2c-2.5,6.5-1.9,13.7,1.5,19.7l1.3-2.6s0,0,0,0c0,0,0,0,0-.1s0,0,0-.1h.1c0-.2,0-.2.1-.2,0,0,0,0,.1,0,0,0,0,0,.1,0,0,0,0,0,.2,0,0,0,0,0,.1,0h0ZM44.3,12.6l-1.3,2.6s0,0,0,0c0,0,0,.1,0,.2h0c0,.2,0,.2-.1.2,0,0,0,0-.1.1,0,0,0,0-.1.1,0,0,0,0-.1,0,0,0,0,0-.2,0,0,0,0,0-.1,0s-.1,0-.2,0h-.2s0,0,0,0h-3c2.1,4,2.5,8.5,1.2,12.7,0,0,.1.2.2.3l2.1,3.4,3.8-.2c2.5-6.5,1.9-13.7-1.5-19.7h0ZM25.3.7l1.5,2.5s0,0,0,0c0,0,0,0,0,.2,0,0,0,.1,0,.2,0,0,0,.1,0,.2v.2c0,0,0,.1,0,.2s0,.1,0,.2v.2c0,0,0,.1,0,.2,0,0,0,.1,0,.2,0,0,0,.1,0,.2,0,0,0,0,0,0l-1.6,2.6c4.2.3,8,2.2,10.9,5.3.1,0,.2,0,.3,0h4c0-.1,1.7-3.5,1.7-3.5C38,4.2,31.9,1,25.3.7Z"/>
      </g>
    </g>
  </g>
</svg>