<?xml version="1.0" encoding="UTF-8"?>
<svg id="Camada_1" data-name="Camada 1" xmlns="http://www.w3.org/2000/svg" version="1.1" viewBox="0 0 48 48">
  <defs>
    <style>
      .cls-1 {
        fill: none;
        stroke: #000;
        stroke-linecap: round;
        stroke-linejoin: round;
        stroke-width: 1.5px;
      }
    </style>
  </defs>
  <g id="Grupo_de_máscara_40" data-name="Grupo de máscara 40">
    <g id="Preview">
      <g id="Grupo_165" data-name="Grupo 165">
        <g id="Grupo_162" data-name="Grupo 162">
          <path id="Caminho_242" data-name="Caminho 242" class="cls-1" d="M40.3,47.2H9.3c-1.9,0-3.4-1.5-3.4-3.4h0v-24.1c0-1.9,1.5-3.4,3.4-3.4h34.4c1.9,0,3.4,1.5,3.4,3.4h0v20.6"/>
          <line id="Linha_20" data-name="Linha 20" class="cls-1" x1="5.9" y1="23.1" x2="46.3" y2="23.1"/>
          <line id="Linha_21" data-name="Linha 21" class="cls-1" x1="10.2" y1="19.6" x2="10.2" y2="19.6"/>
          <line id="Linha_22" data-name="Linha 22" class="cls-1" x1="13.6" y1="19.6" x2="13.6" y2="19.6"/>
          <line id="Linha_23" data-name="Linha 23" class="cls-1" x1="17" y1="19.6" x2="17" y2="19.6"/>
        </g>
        <g id="Grupo_163" data-name="Grupo 163">
          <path id="Caminho_243" data-name="Caminho 243" class="cls-1" d="M2.4,31.2c-1.1-.6-1.7-1.8-1.7-3V4.1C.7,2.2,2.2.7,4.1.7h34.4c1.9,0,3.4,1.5,3.4,3.4h0v8.6"/>
          <line id="Linha_24" data-name="Linha 24" class="cls-1" x1=".7" y1="7.6" x2="41.1" y2="7.6"/>
          <line id="Linha_25" data-name="Linha 25" class="cls-1" x1="5" y1="4.1" x2="5" y2="4.1"/>
          <line id="Linha_26" data-name="Linha 26" class="cls-1" x1="8.4" y1="4.1" x2="8.4" y2="4.1"/>
          <line id="Linha_27" data-name="Linha 27" class="cls-1" x1="11.9" y1="4.1" x2="11.9" y2="4.1"/>
        </g>
        <g id="Grupo_164" data-name="Grupo 164">
          <circle id="Elipse_19" data-name="Elipse 19" class="cls-1" cx="35.1" cy="35.1" r="6"/>
          <path id="Caminho_244" data-name="Caminho 244" class="cls-1" d="M40.6,38.1l6.1,6.1c.7.7.7,1.8,0,2.4h0c-.7.7-1.8.7-2.4,0h0s-6.1-6.1-6.1-6.1"/>
        </g>
      </g>
    </g>
  </g>
</svg>